<svg xmlns="http://www.w3.org/2000/svg" viewBox="0 0 1024 1024">
  
        <path d="M131.2768 173.9264a116.0704 116.0704 0 0 1 82.0736-33.9968h597.2992A116.0704 116.0704 0 0 1 926.72 256v512a116.0192 116.0192 0 0 1-116.0704 116.0704H213.3504A116.0704 116.0704 0 0 1 97.28 768V256c0-30.7712 12.2368-60.3136 33.9968-82.0736z m82.0736 27.4432A54.6304 54.6304 0 0 0 158.72 256v512a54.5792 54.5792 0 0 0 54.6304 54.6304h597.2992A54.6304 54.6304 0 0 0 865.28 768V256a54.6304 54.6304 0 0 0-54.6304-54.6304H213.3504z m106.24 160.9216a30.72 30.72 0 0 1 43.4688 0l128 128a30.72 30.72 0 0 1 0 43.4176l-128 128a30.72 30.72 0 0 1-43.4688-43.4176L425.8816 512 319.5904 405.7088a30.72 30.72 0 0 1 0-43.4176z m204.3392 277.7088a30.72 30.72 0 0 1 30.72-30.72h128a30.72 30.72 0 1 1 0 61.44h-128a30.72 30.72 0 0 1-30.72-30.72z"></path>
    
</svg>