<svg xmlns="http://www.w3.org/2000/svg" viewBox="0 0 1024 1024">
  
        <path d="M233.216 122.88a30.72 30.72 0 0 1 30.72 30.72v48.896h48.9472a30.72 30.72 0 0 1 0 61.44h-48.9472v48.9472a30.72 30.72 0 0 1-61.44 0v-48.9472H153.6a30.72 30.72 0 0 1 0-61.44h48.896V153.6a30.72 30.72 0 0 1 30.72-30.72z m318.6176 0a30.72 30.72 0 0 1 29.1328 20.992l86.3744 259.1744 213.8624 80.1792a30.72 30.72 0 0 1 0 57.5488l-213.8624 80.1792-86.3744 259.1744a30.72 30.72 0 0 1-58.2656 0L436.224 620.9536l-213.8112-80.1792a30.72 30.72 0 0 1 0-57.5488L436.224 403.0464l86.4256-259.1744a30.72 30.72 0 0 1 29.1328-20.992z m0 127.8464l-61.952 185.6512a30.72 30.72 0 0 1-18.3296 19.0464L320.7168 512l150.8352 56.576a30.72 30.72 0 0 1 18.3808 19.0464l61.9008 185.6512 61.8496-185.6512a30.72 30.72 0 0 1 18.3808-19.0464L782.8992 512l-150.8352-56.576a30.72 30.72 0 0 1-18.3808-19.0464l-61.8496-185.6512z m-278.784 429.6704a30.72 30.72 0 0 1 30.72 30.72v48.896h48.9472a30.72 30.72 0 0 1 0 61.44h-48.9472V870.4a30.72 30.72 0 1 1-61.44 0v-48.9472h-48.896a30.72 30.72 0 1 1 0-61.44h48.896v-48.896a30.72 30.72 0 0 1 30.72-30.72z"></path>
    
</svg>