<svg xmlns="http://www.w3.org/2000/svg" viewBox="0 0 1170 1024">
  
        <path d="M847.0528 794.8288l22.2208 21.248-22.2208-21.248z m0-565.6576l-22.1696 21.248 22.1696-21.248z m-670.1056 0l22.1696 21.248-22.1696-21.248z m0 565.6576l-22.2208 21.248 22.2208-21.248z m56.32 55.0912h557.4656v-61.44H233.2672v61.44z m557.4656 0c29.696 0 57.9584-12.3392 78.5408-33.8432l-44.3904-42.496a47.2576 47.2576 0 0 1-34.1504 14.8992v61.44z m78.5408-33.8432c20.5312-21.504 31.8464-50.2784 31.8464-80.0768h-61.44c0 14.336-5.4784 27.8528-14.7968 37.5808l44.3904 42.496z m31.8464-80.0768v-448h-61.44v448h61.44z m0-448c0-29.7984-11.3152-58.624-31.8464-80.0768l-44.3904 42.496c9.3184 9.728 14.7968 23.2448 14.7968 37.5808h61.44z m-31.8464-80.0768a108.6976 108.6976 0 0 0-78.5408-33.8432v61.44c12.544 0 24.8832 5.1712 34.1504 14.848l44.3904-42.4448zM233.2672 174.08c-29.696 0-57.9584 12.3392-78.5408 33.8432l44.3904 42.496a47.2576 47.2576 0 0 1 34.1504-14.8992V174.08z m-78.5408 33.8432c-20.5312 21.504-31.8464 50.2784-31.8464 80.0768h61.44c0-14.336 5.4784-27.8528 14.7968-37.5808l-44.3904-42.496zM122.88 288v448h61.44v-448H122.88z m0 448c0 29.7984 11.3152 58.624 31.8464 80.0768l44.3904-42.496a54.3744 54.3744 0 0 1-14.7968-37.5808H122.88z m31.8464 80.0768c20.5824 21.504 48.7936 33.8432 78.5408 33.8432v-61.44a47.2064 47.2064 0 0 1-34.1504-14.848l-44.3904 42.4448zM282.2144 258.56v121.5488h61.44V258.56h-61.44zM374.784 475.4944h274.3296v-61.44H374.8352v61.44z m367.0016-95.3856V227.1744h-61.44v152.9344h61.44z m-92.672 95.3856c52.4288 0 92.672-43.9808 92.672-95.3856h-61.44c0 20.0192-15.2576 33.9456-31.232 33.9456v61.44zM282.1632 380.16c0 51.4048 40.2432 95.3856 92.672 95.3856v-61.44c-15.9744 0-31.232-13.9264-31.232-33.9456h-61.44zM790.7328 174.08H711.168v61.44h79.616V174.08z m-79.616 0H233.2672v61.44h477.8496V174.08zM366.592 235.52h344.4736V174.08H366.592v61.44z m375.1936-8.2944V204.8h-61.44v22.4256h61.44zM343.552 258.56a23.04 23.04 0 0 1 23.04-23.04V174.08a84.48 84.48 0 0 0-84.48 84.48h61.44z"></path>
    
</svg>