<svg xmlns="http://www.w3.org/2000/svg" viewBox="0 0 1024 1024">
  
        <path d="M520.84117636 83.17647089c205.41176455 0 376.72941182 83.2764709 384.40588272 200.01176456l0.26470547 8.20588184v441.21176542c0 120.97058818-174.44117637 208.21764727-384.67058818 208.2176464-205.46470547 0-376.78235273-83.2764709-384.45882364-200.01176456L136.11764726 732.60588271V291.39411729C136.11764726 170.4235291 310.61176455 83.17647089 520.84117636 83.17647089z m1e-8 637.04117638c-133.2 0-252-34.94117636-321.24705908-91.42941182l0.05294179 103.76470547c0 74.01176455 141.51176458 144.74117636 321.19411728 144.74117636 174.65294092 0 313.25294091-66.86470547 320.82352911-138.54705819l0.31764726-6.14117638 0.0529418-103.76470634c-69.19411729 56.38235273-188.04705908 91.37647089-321.19411816 91.3764709z m0-220.5529418c-133.2 0-252-35.04705908-321.24705908-91.42941094L199.64705908 512c0 73.95882364 141.51176458 144.68823545 321.19411728 144.68823545 179.62941182 0 321.14117636-70.72941182 321.14117637-144.68823545l0.0529418-103.76470547c-69.19411729 56.38235273-188.04705908 91.42941182-321.19411816 91.42941094z m0-352.95882277c-174.70588272 0-313.3058827 66.86470547-320.8235291 138.54705823l-0.37058819 6.14117636c0 73.95882364 141.51176458 144.74117636 321.19411728 144.74117724 179.62941182 0 321.14117636-70.78235273 321.14117637-144.74117724S700.47058818 146.7058827 520.84117636 146.7058827z"></path>
    
</svg>