<svg xmlns="http://www.w3.org/2000/svg" viewBox="0 0 1024 1024">
  
        <path d="M281.6 235.52a97.28 97.28 0 0 0-97.28 97.28v324.2496a97.28 97.28 0 0 0 97.28 97.28h170.6496a97.28 97.28 0 0 0 97.28-97.28 30.72 30.72 0 0 1 61.44 0V665.6a30.72 30.72 0 0 1-0.7168 6.656 158.72 158.72 0 0 1-158.0032 143.5136H281.6a158.72 158.72 0 0 1-158.72-158.72V332.8a158.72 158.72 0 0 1 158.72-158.72h170.6496a158.72 158.72 0 0 1 158.72 158.72v42.6496a30.72 30.72 0 1 1-61.44 0V332.8a97.28 97.28 0 0 0-97.28-97.28H281.6z m447.5904 67.0208a30.72 30.72 0 0 1 43.4688 0l170.6496 170.6496a30.72 30.72 0 0 1 0 43.4688l-170.6496 170.6496a30.72 30.72 0 1 1-43.4688-43.4176l118.272-118.272H435.2a30.72 30.72 0 0 1 0-61.44h412.2112l-118.2208-118.2208a30.72 30.72 0 0 1 0-43.4176z"></path>
    
</svg>