<svg xmlns="http://www.w3.org/2000/svg" viewBox="0 0 1024 1024">
  
        <path d="M317.44 232.704c0-60.3136 47.616-109.824 107.8272-109.824h168.9088a107.008 107.008 0 0 1 87.8592 46.3872 30.72 30.72 0 0 1-50.432 35.072 45.568 45.568 0 0 0-37.4272-20.0192H425.2672c-24.9344 0-46.3872 20.6848-46.3872 48.384V328.704a30.72 30.72 0 0 1-17.0496 27.5456c-47.616 23.6544-77.4656 51.456-96.512 82.8416-19.2512 31.5904-28.8768 69.2224-32.0512 114.688a6.5024 6.5024 0 0 0 6.6048 6.9632h59.0336a30.72 30.72 0 1 1 0 61.44H239.872a67.9424 67.9424 0 0 1-67.8912-72.704c3.584-51.5072 14.848-99.6352 40.8064-142.336 23.3984-38.4 57.4976-70.656 104.6528-96.9728V232.704z m485.3248-1.024a30.72 30.72 0 0 1-0.512 43.52l-292.4544 285.6448c1.8944 0 3.6864 0.1536 5.4784 0.512a30.72 30.72 0 0 1 5.632-0.512h258.6624a6.5024 6.5024 0 0 0 6.656-6.9632c-2.9696-41.8304-11.3152-76.9024-27.4944-106.8032a30.72 30.72 0 0 1 54.016-29.2352c21.6576 39.9872 31.4368 84.4288 34.7136 131.7376a67.9424 67.9424 0 0 1-67.8912 72.704h-239.104V870.4a30.72 30.72 0 1 1-61.44 0v-278.8864-0.6144l-203.8272 199.0656a30.72 30.72 0 1 1-42.9568-43.9296L759.3472 231.2192a30.72 30.72 0 0 1 43.4176 0.512z"></path>
    
</svg>