<svg xmlns="http://www.w3.org/2000/svg" viewBox="0 0 1024 1024">
  
        <path d="M374.784 118.784c13.7728-13.824 32.4096-21.504 51.8656-21.504h170.7008A73.4208 73.4208 0 0 1 670.72 170.6496v97.28h182.6304a30.72 30.72 0 1 1 0 61.44h-14.08l-34.9696 489.5232a116.0704 116.0704 0 0 1-115.712 107.8272H335.4112a116.0704 116.0704 0 0 1-115.7632-107.8272l-34.9696-489.472h-14.08a30.72 30.72 0 0 1 0-61.44H353.28v-97.28c0-19.456 7.7312-38.144 21.504-51.9168z m39.936 149.1456h194.56v-97.28a11.9296 11.9296 0 0 0-11.9296-11.9296H426.6496a11.9296 11.9296 0 0 0-11.9296 11.9296v97.28z m-168.3968 61.44l34.6624 485.1712a54.6304 54.6304 0 0 0 54.4768 50.688h353.0752a54.6304 54.6304 0 0 0 54.4768-50.688l34.6624-485.1712H246.3232z m180.3264 109.2608a30.72 30.72 0 0 1 30.72 30.72v256a30.72 30.72 0 0 1-61.44 0v-256a30.72 30.72 0 0 1 30.72-30.72z m170.7008 0a30.72 30.72 0 0 1 30.72 30.72v256a30.72 30.72 0 0 1-61.44 0v-256a30.72 30.72 0 0 1 30.72-30.72z"></path>
    
</svg>