<svg xmlns="http://www.w3.org/2000/svg" viewBox="0 0 1024 1024">
  
        <path d="M448 241.7152a161.28 161.28 0 1 0 0 322.56 161.28 161.28 0 0 0 0-322.56zM225.28 402.9952a222.72 222.72 0 1 1 382.3616 155.2896l28.9792 38.6048c3.2256-3.3792 6.8096-6.4512 10.752-9.216l32.7168-22.528a69.12 69.12 0 0 1 96.1536 17.6128l37.8368 54.784a69.12 69.12 0 0 1-17.6128 96.1536l-32.6656 22.528a69.1712 69.1712 0 0 1-5.2224 3.2768l21.1968 28.2624a30.72 30.72 0 0 1-49.152 36.864l-171.4688-228.608A222.72 222.72 0 0 1 225.28 402.9952z m500.3776 214.6304a7.68 7.68 0 0 0-10.6496-1.9456l-32.6656 22.528a7.68 7.68 0 0 0-1.9456 10.752l37.8368 54.784a7.68 7.68 0 0 0 10.6496 1.9456l32.6656-22.528a7.68 7.68 0 0 0 1.9456-10.752l-37.8368-54.784z"></path>
    
</svg>