<svg xmlns="http://www.w3.org/2000/svg" viewBox="0 0 1024 1024">
  
        <path d="M111.0016 241.2032C166.4 204.3392 240.128 182.6304 320 182.6304c71.936 0 138.9056 17.664 192 48.128 53.0944-30.464 120.064-48.128 192-48.128 79.872 0 153.6 21.76 208.9984 58.5728a30.72 30.72 0 0 1 13.7216 25.6v554.6496a30.72 30.72 0 0 1-47.7184 25.6c-44.2368-29.3888-105.7792-48.3328-175.0016-48.3328-69.12 0-130.7648 18.944-175.0016 48.3328a30.72 30.72 0 0 1-33.9968 0C450.7648 817.664 389.12 798.72 320 798.72c-69.12 0-130.7648 18.944-175.0016 48.3328a30.72 30.72 0 0 1-47.7184-25.6V266.8032c0-10.2912 5.12-19.9168 13.7216-25.6z m370.2784 42.7008c-42.8544-24.4736-99.0208-39.8336-161.28-39.8336s-118.4256 15.36-161.28 39.8336v485.9904c47.2576-20.8896 102.6048-32.6144 161.28-32.6144s114.0224 11.776 161.28 32.6144V283.904z m61.44 485.9904c47.2576-20.8896 102.6048-32.6144 161.28-32.6144s114.0224 11.776 161.28 32.6144V283.904c-42.8544-24.4736-98.9696-39.8336-161.28-39.8336-62.2592 0-118.4256 15.36-161.28 39.8336v485.9904z"></path>
    
</svg>