<svg xmlns="http://www.w3.org/2000/svg" viewBox="0 0 1024 1024">
  
        <path d="M968.4992 207.872a12.9536 12.9536 0 0 0-8.9088-3.072c-8.9088 0-20.4288 6.1952-26.624 9.5232l-2.4064 1.28c-10.3936 5.12-21.7088 8.0384-33.28 8.5504-11.776 0.4096-21.9648 1.0752-35.2256 2.56-78.5408 8.192-113.5616 69.888-147.3024 129.536-18.432 32.4608-37.376 66.1504-63.3856 91.904a172.4416 172.4416 0 0 1-17.152 14.8992c-26.88 20.48-60.7232 35.1744-87.04 45.568-25.2928 9.8816-52.9408 18.7904-79.6672 27.392-24.4736 7.8848-47.5648 15.36-68.8128 23.4496-9.5744 3.6352-17.7152 6.4512-24.8832 8.9088-19.3536 6.4-33.28 11.3152-53.76 25.7024a344.9344 344.9344 0 0 0-21.2992 16.128c-16.1792 13.2096-30.5152 28.672-42.5472 45.9264-10.3936 15.872-22.3744 30.6688-35.7888 43.9808-4.3008 4.3008-11.9296 6.4-23.3472 6.4-13.4144 0-29.6448-2.816-46.848-5.7856-17.7152-3.2256-36.0448-6.2976-51.712-6.2976-12.8 0-22.528 2.0992-29.8496 6.4512 0 0-12.288 7.3216-17.4592 16.8448l5.12 2.304c7.8848 4.4032 15.1552 9.8304 21.7088 16.128 6.8096 6.4512 14.4384 11.9808 22.6304 16.4864 2.6112 0.9728 4.9664 2.56 6.9632 4.5056-2.1504 3.2256-5.2736 7.3728-8.5504 11.8272-18.1248 24.32-28.7232 39.68-22.6816 48.0256 2.9184 1.536 6.144 2.304 9.4208 2.2016 39.5264 0 60.7744-10.5472 87.6544-23.8592 7.7824-3.84 15.7184-7.8336 25.088-11.9296 15.7696-6.9632 32.6656-18.1248 50.5856-29.9008 23.5008-15.6672 48.0256-31.744 71.8336-39.5264a191.488 191.488 0 0 1 60.416-8.704c25.1392 0 51.6096 3.4816 77.1072 6.8096 18.9952 2.56 38.7072 5.12 58.0608 6.2976 7.4752 0.4608 14.4384 0.6656 21.1968 0.6656 9.0112 0 18.0736-0.4608 27.0336-1.4336l2.2016-0.768c13.5168-8.5504 19.8656-26.88 26.0096-44.544 3.9936-11.4176 7.3216-21.6576 12.5952-28.16a8.0896 8.0896 0 0 1 1.024-0.8704 1.2288 1.2288 0 0 1 1.536 0.256v0.512c-3.1744 69.2224-30.3616 113.2032-57.856 152.2688l-18.432 20.224s25.7536 0 40.3968-5.8368c53.4016-16.3328 93.696-52.3776 123.0848-109.8752a474.112 474.112 0 0 0 19.3536-45.3632c0.512-1.28 5.12-3.6352 4.7104 3.0208-0.2048 1.9456-0.3072 4.096-0.4608 6.4 0 1.3824 0 2.7648-0.256 4.1472-0.768 9.6768-2.9696 30.0544-2.9696 30.0544l16.4864-9.0624c39.7824-25.7024 70.4512-77.6704 93.696-158.5152 9.6768-33.6384 16.7936-67.072 23.04-96.5632 7.4752-35.3792 13.9264-65.7408 21.2992-77.5168 11.5712-18.4832 29.2864-30.976 46.3872-43.1104 2.3552-1.6384 4.7104-3.2256 7.0144-4.9664 21.504-15.4624 42.9056-33.3312 47.616-66.6624v-0.7168c3.4304-24.8832 0.512-31.232-2.7648-34.0992z" fill="#003545"></path>
    
</svg>