<svg xmlns="http://www.w3.org/2000/svg" viewBox="0 0 1024 1024">
  
        <path d="M106.8544 204.4416a121.088 121.088 0 0 1 80.896-30.3616h597.2992c29.7984 0 58.9312 10.5984 80.896 30.3616l-20.3776 22.6816 20.3776-22.6816M187.7504 235.52c-15.5136 0-29.7472 5.5296-39.8336 14.592a42.4448 42.4448 0 0 0-14.848 31.488v460.8c0 11.1104 4.9152 22.528 14.848 31.488 10.0864 9.0112 24.32 14.592 39.8336 14.592h597.2992c15.4624 0 29.7472-5.5808 39.7824-14.592a42.496 42.496 0 0 0 14.848-31.488v-460.8a42.496 42.496 0 0 0-14.848-31.488l20.5824-22.8352-20.5824 22.8352a59.6992 59.6992 0 0 0-39.7824-14.592H187.7504z m678.1952-31.0784c22.0672 19.8656 35.1744 47.5136 35.1744 77.1584v460.8c0 29.6448-13.1072 57.2928-35.1744 77.1072a121.088 121.088 0 0 1-80.896 30.4128H187.7504a121.088 121.088 0 0 1-80.896-30.4128l20.3776-22.6304-20.3776 22.6304A103.8336 103.8336 0 0 1 71.68 742.4v-460.8c0-29.6448 13.1072-57.2928 35.1744-77.1584M423.8848 376.32a30.72 30.72 0 0 1-2.2528 43.3664L318.976 512l102.656 92.3648a30.72 30.72 0 0 1-41.1136 45.6704l-128-115.2a30.72 30.72 0 0 1 0-45.6704l128-115.2a30.72 30.72 0 0 1 43.3664 2.304z m125.0304 0a30.72 30.72 0 0 1 43.3664-2.304l128 115.2a30.72 30.72 0 0 1 0 45.6704l-128 115.2a30.72 30.72 0 1 1-41.1136-45.6704L653.824 512l-102.656-92.3648a30.72 30.72 0 0 1-2.2528-43.3664z"></path>
    
</svg>