<svg xmlns="http://www.w3.org/2000/svg" viewBox="0 0 1024 1024">
  
        <path d="M345.9072 227.5328a329.472 329.472 0 0 1 492.9536 243.3024 30.72 30.72 0 0 1-60.928 7.68A267.9808 267.9808 0 0 0 285.184 369.3056h114.8416a30.72 30.72 0 0 1 0 61.44H213.3504a30.72 30.72 0 0 1-30.72-30.72V213.3504a30.72 30.72 0 0 1 61.44 0v107.008a329.4208 329.4208 0 0 1 101.8368-92.8256z m-134.144 291.328a30.72 30.72 0 0 1 34.3552 26.624 267.9808 267.9808 0 0 0 492.7488 109.2096h-114.8416a30.72 30.72 0 0 1 0-61.44h186.6752a30.72 30.72 0 0 1 30.72 30.72v186.6752a30.72 30.72 0 0 1-61.44 0v-107.008a329.472 329.472 0 0 1-594.7904-150.4768 30.72 30.72 0 0 1 26.624-34.304z"></path>
    
</svg>