<svg xmlns="http://www.w3.org/2000/svg" viewBox="0 0 1024 1024">
  
        <path d="M152.6784 215.9104c19.7632-25.3952 48.4352-41.8304 80.5376-41.8304h557.568c32.1024 0 60.7744 16.4352 80.5376 41.8304 19.6096 25.2416 29.7984 58.112 29.7984 91.2896v409.6c0 33.1264-10.1888 66.048-29.7984 91.2896-19.7632 25.3952-48.4352 41.8304-80.5888 41.8304H233.216c-32.1024 0-60.7744-16.4352-80.5376-41.8816C133.0688 782.848 122.88 749.9776 122.88 716.8V307.2c0-33.1776 10.1888-66.048 29.7984-91.2896z m80.5376 19.6096c-10.0864 0-21.9136 5.12-32.0512 18.1248-10.24 13.2096-16.896 32.4096-16.896 53.5552v409.6c0 21.1456 6.656 40.3456 16.896 53.5552 10.1376 13.0048 21.9648 18.1248 32.0512 18.1248h333.4144V235.52H233.216z m394.8544 0v552.96h162.6624c10.1376 0 22.016-5.12 32.1024-18.1248 10.24-13.2096 16.8448-32.4096 16.8448-53.5552V307.2c0-21.1456-6.6048-40.3456-16.896-53.5552-10.0864-13.0048-21.9136-18.1248-32.0512-18.1248h-162.6624z"></path>
    
</svg>