<svg xmlns="http://www.w3.org/2000/svg" viewBox="0 0 1024 1024">
  
        <path d="M631.076571 228.59581c44.519619-9.654857 92.208762-8.387048 135.070477 7.899428 29.891048 11.605333 56.07619 31.061333 75.922285 56.271238 9.411048 11.995429 10.630095 28.038095 11.215238 42.764191 0.487619 35.011048-6.534095 69.680762-15.457523 103.375238a740.205714 740.205714 0 0 1-75.385905 177.93219c-3.218286 5.461333-6.729143 10.727619-10.581333 15.798857l-1.219048-6.192762c4.047238-10.727619 9.947429-20.870095 12.239238-32.182857 8.143238-32.182857 1.26781-65.243429-1.657905-97.523809-3.072-30.573714 7.216762-60.220952 6.972953-90.697143 1.170286-14.872381-4.632381-28.964571-10.337524-42.422857-20.48-46.32381-53.150476-87.527619-94.988191-115.858286-10.191238-7.070476-21.601524-12.04419-31.792762-19.163428z" fill="#2E79B6"></path>
        <path d="M507.465143 232.838095a209.67619 209.67619 0 0 1 155.745524 42.812953 249.417143 249.417143 0 0 1 79.676952 111.37219c-25.453714-0.877714-54.272-1.950476-74.849524 15.945143-18.67581 15.896381-21.065143 43.056762-16.871619 65.828571 9.752381 54.223238 41.350095 100.303238 64.707048 149.065143 6.192762 11.410286 14.57981 21.406476 22.430476 31.646476-9.411048 4.87619-19.943619 9.411048-25.307429 19.260953-9.362286 15.311238-6.095238 33.987048-8.387047 51.004952-5.36381 47.591619-10.727619 95.280762-18.383238 142.628572-3.657143 22.674286-13.165714 46.811429-34.377143 58.026666-21.699048 11.215238-46.908952 18.18819-71.338667 14.433524-23.210667-4.144762-37.790476-25.941333-44.373333-47.299048-4.778667-17.798095-5.315048-36.425143-6.680381-54.80838-2.145524-44.373333-2.535619-88.746667-1.219048-133.12 0.975238-17.359238-7.801905-35.401143-23.113143-43.836953-7.41181-4.144762-16.091429-4.778667-24.380952-5.412571 6.534095-32.621714 26.185143-60.757333 32.914286-93.330286 8.728381-40.277333 3.900952-82.212571-5.071238-122.002286-4.33981-19.846095-19.309714-37.449143-39.15581-42.227809-30.622476-7.801905-61.488762 4.291048-88.892952 17.212952 3.413333-44.958476 15.36-90.989714 42.617905-127.512381a126.244571 126.244571 0 0 1 84.309333-49.688381z" fill="#2E79B6"></path>
        <path d="M274.139429 236.495238c48.761905-9.45981 98.742857 0.585143 145.505523 15.018667a217.819429 217.819429 0 0 0-46.08 79.481905 324.705524 324.705524 0 0 0-15.603809 122.977523c1.950476 29.257143 0.926476 58.563048-2.974476 87.576381a119.661714 119.661714 0 0 0 37.790476 102.4c-18.919619 22.332952-39.009524 43.739429-57.344 66.608762-8.143238 9.654857-19.017143 21.162667-32.865524 18.285714-16.14019-4.729905-26.428952-19.651048-35.401143-33.011809-24.33219-39.302095-39.009524-83.72419-52.419047-127.756191-15.018667-52.175238-27.696762-105.179429-35.011048-159.061333-3.608381-40.96-1.365333-84.992 19.407238-121.465905 15.555048-27.648 44.519619-45.251048 74.99581-51.053714z m416.280381 189.098667c-5.997714 5.022476 0.487619 12.385524 5.558857 14.726095 12.483048 7.41181 29.500952-2.925714 29.939809-17.310476a35.742476 35.742476 0 0 0-35.498666 2.584381z m-6.63162-6.729143c17.944381-12.873143 41.398857-10.044952 62.122667-8.777143-0.877714 29.013333-9.752381 57.441524-6.826667 86.601143 2.584381 36.08381 12.921905 74.898286-3.900952 109.129143-22.576762-45.397333-51.785143-88.746667-61.927619-139.312762-2.925714-16.091429-3.608381-36.473905 10.532571-47.640381z" fill="#2E79B6"></path>
        <path d="M442.953143 426.520381c-3.462095 1.219048-7.070476 3.608381-6.339048 7.801905 2.438095 14.433524 21.552762 23.259429 33.645715 14.238476 5.266286-3.023238 10.873905-11.361524 4.729904-16.384-8.728381-7.168-21.455238-8.582095-32.036571-5.656381z m-63.195429 11.068952c22.430476-14.726095 48.761905-26.233905 75.971048-24.624762a33.158095 33.158095 0 0 1 30.524952 24.722286c12.385524 49.834667 16.188952 105.179429-7.460571 152.380953a450.56 450.56 0 0 0-20.772572 56.124952c-39.399619 0.438857-72.94781-33.255619-79.969523-71.192381-4.729905-21.455238 1.462857-43.008 2.243047-64.463238 1.657905-24.283429-0.097524-48.664381-0.536381-72.94781z m355.181715 239.323429c5.851429-4.388571 14.140952-8.387048 20.870095-3.608381 28.720762 15.262476 62.073905 7.801905 92.550095 4.096-18.627048 18.285714-44.470857 26.916571-69.827048 29.696-16.822857 1.950476-34.279619 2.584381-50.517333-3.023238 0.048762-9.264762-0.438857-20.284952 6.924191-27.160381z m-288.914286 35.547428c16.481524-8.97219 22.966857-28.720762 38.375619-38.863238 16.774095-2.438095 29.062095 22.77181 16.335238 34.718477-24.722286 33.889524-74.264381 40.374857-110.055619 21.942857 17.65181-8.289524 38.326857-7.655619 55.344762-17.846857z" fill="#2E79B6"></path>
    
</svg>