<svg xmlns="http://www.w3.org/2000/svg" viewBox="0 0 1024 1024">
  
        <path d="M791.30819 713.386667c-36.425143-0.975238-64.609524 2.779429-88.259047 12.970666-6.826667 2.779429-17.700571 2.779429-18.67581 11.556572 3.657143 3.705905 4.096 9.752381 7.314286 14.872381 5.461333 9.264762 14.969905 21.74781 23.649524 28.281904 9.557333 7.363048 19.114667 14.774857 29.110857 21.260191 17.749333 11.166476 37.741714 17.603048 55.003429 28.769524 10.044952 6.436571 19.992381 14.774857 30.037333 21.747809 5.022476 3.705905 8.143238 9.752381 14.579809 12.044191v-1.414095c-3.218286-4.144762-4.144762-10.191238-7.314285-14.82362-4.534857-4.632381-9.069714-8.777143-13.653334-13.409523a218.550857 218.550857 0 0 0-47.299047-46.811429c-14.531048-10.24-46.372571-24.088381-52.272762-41.203809l-0.975238-0.975239c10.044952-0.926476 21.942857-4.632381 31.451428-7.411809 15.457524-4.193524 29.549714-3.218286 45.446096-7.41181 7.314286-1.852952 14.57981-4.193524 21.894095-6.485333v-4.193524c-8.240762-8.289524-14.140952-19.456-22.77181-27.306666a610.596571 610.596571 0 0 0-75.093333-57.002667c-14.09219-9.264762-32.280381-15.262476-47.299048-23.161905-5.412571-2.779429-14.482286-4.144762-17.700571-8.777143-8.192-10.24-12.775619-23.649524-18.67581-35.693714a1159.41181 1159.41181 0 0 1-37.254095-80.65219c-8.192-18.041905-13.165714-36.08381-23.210667-52.809143-46.86019-78.750476-97.767619-126.439619-176.030476-173.251048-16.822857-9.752381-36.815238-13.945905-58.172952-19.017143-11.410286-0.487619-22.77181-1.414095-34.133333-1.852952-7.314286-3.267048-14.628571-12.04419-20.967619-16.237714-25.892571-16.676571-92.745143-52.809143-111.85981-5.071239-12.288 30.134857 18.18819 59.782095 28.672 75.093334 7.704381 10.630095 17.749333 22.674286 23.161905 34.718476 3.218286 7.850667 4.096 16.237714 7.314285 24.527238 7.265524 20.382476 14.09219 43.105524 23.649524 62.122667 4.973714 9.752381 10.435048 19.943619 16.774096 28.720762 3.705905 5.12 10.044952 7.41181 11.410285 15.750095-6.339048 9.264762-6.826667 23.161905-10.483809 34.767238-16.335238 52.370286-9.99619 117.223619 13.165714 155.648 7.314286 11.605333 24.624762 37.059048 47.786667 27.306667 20.48-8.289524 15.945143-34.718476 21.845333-57.880381 1.365333-5.558857 0.487619-9.264762 3.169524-12.970667v0.975238c6.339048 12.921905 12.726857 25.404952 18.675809 38.424381 14.140952 22.674286 38.619429 46.32381 59.099429 62.073905 10.922667 8.338286 19.553524 22.674286 33.158095 27.794286v-1.414096h-0.828952c-2.779429-4.144762-6.826667-5.997714-10.48381-9.264762a227.035429 227.035429 0 0 1-23.649524-27.794285 594.992762 594.992762 0 0 1-50.907428-84.309334c-7.314286-14.384762-13.653333-30.134857-19.602286-44.470857-2.730667-5.558857-2.730667-13.897143-7.314286-16.676571-6.826667 10.191238-16.774095 19.017143-21.796571 31.451428-8.630857 19.992381-9.508571 44.519619-12.726857 70.022096-1.80419 0.487619-0.877714 0-1.804191 0.877714-14.531048-3.657143-19.553524-18.968381-25.014857-31.890286-13.653333-32.963048-15.945143-85.77219-4.096-123.757714 3.169524-9.752381 16.822857-40.277333 11.361524-49.542095-2.730667-8.874667-11.849143-13.897143-16.822857-20.870096a184.417524 184.417524 0 0 1-16.384-29.647238c-10.922667-25.941333-16.384-54.710857-28.184381-80.65219-5.461333-12.04419-15.018667-24.576-22.723048-35.644953-8.679619-12.53181-18.236952-21.308952-25.063619-36.132571-2.243048-5.12-5.412571-13.458286-1.80419-19.017143 0.877714-3.705905 2.730667-5.12 6.387809-6.046476 5.851429-5.071238 22.723048 1.414095 28.623238 4.193524 16.871619 6.92419 30.96381 13.458286 45.007239 23.161905 6.38781 4.632381 13.214476 13.409524 21.406476 15.750095h9.557333c14.531048 3.218286 30.915048 0.926476 44.568381 5.12a288.670476 288.670476 0 0 1 65.487238 31.939047 408.429714 408.429714 0 0 1 141.897143 158.476191c5.461333 10.630095 7.801905 20.382476 12.775619 31.50019 9.508571 22.723048 21.357714 45.884952 30.915048 68.120381 9.508571 21.796571 18.627048 43.983238 32.329142 62.073905 6.826667 9.752381 34.084571 14.823619 46.32381 19.943619 9.118476 4.144762 23.259429 7.850667 31.451429 12.921905 15.457524 9.752381 30.866286 20.870095 45.446095 31.548952 7.265524 5.558857 29.988571 17.16419 31.402666 26.428953z" fill="#4584FD"></path>
        <path d="M330.800762 307.297524a4.87619 4.87619 0 0 0-3.413333-1.462857 76.458667 76.458667 0 0 0-19.943619 2.486857 4.87619 4.87619 0 0 0-3.608381 4.729905v0.926476a4.87619 4.87619 0 0 0 2.486857 4.291047 57.929143 57.929143 0 0 0 8.338285 10.825143c1.950476 2.194286 3.705905 4.193524 5.266286 6.339048 1.755429 3.559619 3.413333 7.119238 5.022476 10.727619l0.195048 0.438857 5.071238 10.727619a4.87619 4.87619 0 0 0 7.850667 1.316572 33.450667 33.450667 0 0 0 0.682666-0.731429c7.801905-5.851429 11.215238-14.921143 11.215238-26.819048a4.87619 4.87619 0 0 0-1.121523-3.120762 15.213714 15.213714 0 0 1-2.438096-4.242285 24.527238 24.527238 0 0 0-9.752381-11.995429l-1.706666-1.170286a28.672 28.672 0 0 1-4.144762-3.267047z" fill="#4584FD"></path>
    
</svg>