<svg xmlns="http://www.w3.org/2000/svg" viewBox="0 0 1024 1024">
  
        <path d="M491.52 51.2a440.32 440.32 0 1 0 0 880.64A440.32 440.32 0 0 0 491.52 51.2z m0 61.44a378.88 378.88 0 1 1 0 757.76 378.88 378.88 0 0 1 0-757.76z"></path>
        <path d="M590.0288 256.9728c47.7696-29.7984 82.432-36.352 104.5504-29.3888 4.9152 1.536 9.4208 4.1472 13.2096 7.68a35.84 35.84 0 0 1 8.6528 12.6464c12.288 30.0544 15.7696 63.232 10.0864 95.232l-1.536 7.168 3.84 5.5808c16.7936 25.7536 26.624 55.808 28.5696 86.9376l0.3584 11.776c0 117.3504-50.3296 179.0976-130.3552 203.776l-7.4752 2.1504 2.3552 10.24c1.3312 7.168 2.048 14.336 2.0992 21.504l-0.3072 10.752-2.8672 172.4416a37.12 37.12 0 0 1-9.9328 25.1904 34.7648 34.7648 0 0 1-7.168 5.7856l-4.096 2.0992-8.192-18.7904a13.9264 13.9264 0 0 0 4.608-3.2256 15.4112 15.4112 0 0 0 3.1232-4.9664l0.8704-2.9696 0.3072-3.2768 2.8672-173.2608A107.264 107.264 0 0 0 600.064 665.6l-2.7648-8.704-4.096-10.9568 11.3664-2.6112c81.8176-18.7904 132.7104-72.96 132.7104-188.7744a160.1536 160.1536 0 0 0-24.9856-86.528l-6.4512-9.3184-1.7408-8.6528a152.2176 152.2176 0 0 0-6.656-94.4128 15.36 15.36 0 0 0-3.6864-5.4272 13.7216 13.7216 0 0 0-5.3248-3.072c-16.128-5.12-44.9024 0.4608-88.0128 27.4432l-9.472 6.144-8.192 1.4336a321.792 321.792 0 0 0-140.9024-3.4816l-15.5136 3.4816-8.192-1.4336c-48.3328-32.256-80.2304-39.0656-97.4848-33.6384a13.6704 13.6704 0 0 0-5.2736 3.1232 15.36 15.36 0 0 0-3.6864 5.4272 152.32 152.32 0 0 0-8.9088 83.9168l2.2016 10.496-1.7408 8.6528a159.5392 159.5392 0 0 0-31.4368 96.6144c0 109.2096 44.288 163.584 123.6992 185.7536l9.3184 2.4064 11.264 2.7136-4.096 10.9056a103.68 103.68 0 0 0-6.7584 34.7136l0.2048 8.96v10.752l-8.0384 1.7408c-45.5168 9.984-74.3936-1.3824-100.352-32.8704L285.696 665.6c-14.336-18.5344-25.7024-28.16-40.6528-32.1536a13.0048 13.0048 0 0 0-10.24 1.792 15.36 15.36 0 0 0-6.4512 9.3696 16.5888 16.5888 0 0 0 1.5872 11.8784 14.1824 14.1824 0 0 0 8.3456 6.8608 25.6 25.6 0 0 1 4.864 1.8432c5.1712 2.56 9.1136 5.7856 14.5408 12.1856l7.4752 9.3696 4.608 6.144c28.7744 38.4 62.72 58.6752 113.4592 53.6064l10.3936-1.3824 11.52-1.8432 3.584 131.584c0 4.1984 1.5872 8.192 4.352 11.1104 2.6112 2.7648 6.144 4.3008 9.728 4.3008s7.1168-1.536 9.728-4.3008a15.9744 15.9744 0 0 0 4.0448-7.8848l0.3072-2.9696-3.3792-153.7024v-21.76a74.24 74.24 0 0 1 3.9424-29.0304 71.68 71.68 0 0 1 14.7968-24.9856 16.7424 16.7424 0 0 0 3.2768-16.1792 15.4624 15.4624 0 0 0-4.608-6.8608 13.4144 13.4144 0 0 0-6.912-3.1232C347.4944 606.72 300.032 564.224 300.032 455.2704a126.976 126.976 0 0 1 32.3584-86.016 16.6912 16.6912 0 0 0 3.1232-16.3328 119.296 119.296 0 0 1-5.5808-57.3952l1.8432-9.6256 2.304-9.9328 9.984 2.304c17.7152 4.096 40.192 14.848 67.8912 34.4576 3.328 2.3552 7.3728 3.072 11.1616 1.9968a296.3968 296.3968 0 0 1 162.9696 0 12.8 12.8 0 0 0 11.1616-1.9968c24.32-17.152 44.544-27.4944 60.9792-32.6656l6.8096-1.9456 10.0352-2.4064 2.3552 10.0352c5.2224 22.272 3.9424 45.7216-3.6864 67.2256a16.64 16.64 0 0 0 3.072 16.3328c20.8896 23.04 32.4608 53.5552 32.4096 85.2992 0 110.2848-47.5136 152.7296-143.872 164.0448a13.4656 13.4656 0 0 0-7.0656 3.072 15.4112 15.4112 0 0 0-4.608 6.8608 16.6912 16.6912 0 0 0 3.2256 16.2304c11.9296 12.9536 18.432 29.952 18.8928 48.2304l-3.1232 182.4256a16.5888 16.5888 0 0 0 4.3008 11.1104 13.9776 13.9776 0 0 0 4.5568 3.2256l2.56 0.768 2.6112 0.3072v20.48a33.3824 33.3824 0 0 1-24.576-10.752 35.9424 35.9424 0 0 1-9.6768-20.5312l-0.256-4.7616 2.9696-175.2576c1.024-14.0288-2.3552-26.624-9.472-36.608l-3.84-4.7616a37.12 37.12 0 0 1-7.5776-36.7104 35.7888 35.7888 0 0 1 10.9568-16.0256 33.792 33.792 0 0 1 17.7152-7.68c86.8864-10.1888 125.7984-44.9024 125.7984-143.7184 0-26.624-9.728-52.2752-27.136-71.5264a36.352 36.352 0 0 1-8.4992-32.1536l1.3312-4.7616c4.1984-11.8784 6.0928-24.4736 5.632-37.0176l-0.7168-7.7824-1.6384 0.6144a210.8928 210.8928 0 0 0-39.2704 21.0944l-9.3696 6.4512a33.8432 33.8432 0 0 1-28.6208 4.9152 275.968 275.968 0 0 0-151.7568 0 33.6384 33.6384 0 0 1-28.5696-4.9152c-19.2512-13.6192-35.328-22.4256-48.5376-27.4432l-1.7408-0.6656-0.6656 7.8336c-0.3584 9.3696 0.6144 18.7904 2.9184 27.904l2.7136 9.0112a37.1712 37.1712 0 0 1-4.1984 33.024l-3.072 3.8912a106.5472 106.5472 0 0 0-27.0336 72.192c0 97.536 39.0144 132.5056 126.2592 143.872 6.4512 0.8704 12.4928 3.584 17.5104 7.8336 4.9152 4.2496 8.6016 9.728 10.752 15.9744a37.2224 37.2224 0 0 1-4.608 32.6656l-3.0208 3.84a51.2512 51.2512 0 0 0-13.3632 31.9488v33.1264l3.3792 150.3744c0 9.3696-3.584 18.432-9.9328 25.1392a33.9456 33.9456 0 0 1-24.6272 10.7008 33.9456 33.9456 0 0 1-24.576-10.7008 36.4544 36.4544 0 0 1-9.5232-19.456l-0.4096-5.4272-3.072-108.3392-10.496 0.8192c-49.664 2.048-85.5552-18.432-115.0976-54.528l-13.2608-17.2032-5.2224-6.2464-3.9424-3.9424a19.2512 19.2512 0 0 0-1.6384-1.28l-1.536-0.9216-1.1776-0.4608a34.7136 34.7136 0 0 1-20.7872-16.5888 37.0688 37.0688 0 0 1-3.6352-26.5728 35.84 35.84 0 0 1 15.3088-21.8624 33.5872 33.5872 0 0 1 26.3168-4.4032c18.0224 4.7104 31.3344 14.6944 45.6704 31.744l7.8848 9.984 4.352 5.7856c19.712 26.368 38.5536 37.6832 68.9152 34.816l7.9872-1.1264-0.1024-3.6864c0.1536-6.9632 0.9216-13.9264 2.2528-20.8384l2.304-9.728-8.8064-2.56c-78.8992-25.344-125.44-83.3536-128.9216-189.5936l-0.256-12.9536a180.5312 180.5312 0 0 1 28.8768-99.4816l3.8912-5.632-1.536-7.168a173.056 173.056 0 0 1 5.9392-83.8144l4.1984-11.4176a35.84 35.84 0 0 1 8.704-12.6464 34.0992 34.0992 0 0 1 13.1072-7.68c22.1184-7.0144 56.832-0.4096 104.6016 29.3888l6.656 4.3008 12.0832-2.7136a342.1696 342.1696 0 0 1 133.4272 0l12.032 2.7136 6.7072-4.3008z"></path>
        <path d="M586.6496 901.12a23.1936 23.1936 0 0 1-17.152-7.5264 25.7024 25.7024 0 0 1-7.168-18.0736l2.9696-174.6944a64.3072 64.3072 0 0 0-15.9744-49.0496 26.88 26.88 0 0 1-5.4272-26.4704 25.6 25.6 0 0 1 7.8336-11.4688 23.6544 23.6544 0 0 1 12.3392-5.376c70.0416-8.192 134.8608-32.5632 134.8608-153.856 0.0512-29.184-10.5984-57.344-29.696-78.4384a26.9824 26.9824 0 0 1-5.12-26.624c6.912-19.6608 8.0896-41.0624 3.2768-61.44-11.4176 2.7648-32.5632 10.5984-64.256 33.024a23.6032 23.6032 0 0 1-19.8656 3.4304 286.1568 286.1568 0 0 0-157.3888 0 23.3984 23.3984 0 0 1-19.8656-3.4304c-31.3856-22.2208-52.4288-30.1056-64.3072-32.8704-4.7616 20.3264-3.584 41.6768 3.4304 61.2864a26.9312 26.9312 0 0 1-5.1712 26.624 116.736 116.736 0 0 0-29.7472 79.0016c0 119.8592 64.9728 144.896 135.168 154.112 4.4544 0.5632 8.704 2.4576 12.1856 5.4784 3.5328 2.9696 6.144 6.912 7.68 11.4176a26.9824 26.9824 0 0 1-5.4272 26.3168c-5.632 6.144-9.9328 13.4144-12.6976 21.4528a64 64 0 0 0-3.3792 25.0368v22.4256a25.7024 25.7024 0 0 1 0 3.328l3.3792 150.1184c0 6.7584-2.56 13.312-7.168 18.1248a23.7056 23.7056 0 0 1-17.152 7.4752 23.7056 23.7056 0 0 1-17.152-7.4752 26.368 26.368 0 0 1-7.168-18.1248L395.264 755.2c-73.3696 11.776-112.2816-27.648-133.632-56.2176-9.472-12.6464-17.6128-23.552-25.9584-25.8048a24.5248 24.5248 0 0 1-14.6432-11.776 26.8288 26.8288 0 0 1-2.6112-19.1488 25.6 25.6 0 0 1 10.8544-15.6672 23.2448 23.2448 0 0 1 18.176-3.072c24.4736 6.4 39.2704 26.2144 52.3264 43.7248 20.3264 27.2384 44.7488 47.1552 95.488 36.0448v-2.4576c-1.1264-15.872 1.4336-32.1536 7.168-47.36-68.4544-16.4352-140.8-60.7232-140.8-198.144a169.728 169.728 0 0 1 33.4848-102.7584 162.6624 162.6624 0 0 1 7.1168-100.7616 25.6 25.6 0 0 1 6.144-9.0624 23.9104 23.9104 0 0 1 9.2672-5.376c8.8064-2.816 41.984-8.0384 106.24 34.816a332.1344 332.1344 0 0 1 161.3824 0c64.3072-42.8544 97.3312-37.632 106.2912-34.816 3.3792 1.024 6.5536 2.9184 9.216 5.376a25.6 25.6 0 0 1 6.1952 9.0624c13.0048 31.7952 15.5136 67.2768 7.1168 100.7616 21.7088 29.0304 33.536 65.024 33.4336 101.9904 0 145.408-83.7632 185.7024-140.6464 198.7584 5.7856 15.5648 8.2432 32.4608 6.9632 49.5104l-2.8672 172.6976a26.88 26.88 0 0 1-7.168 18.0736 24.1152 24.1152 0 0 1-7.8336 5.5808"></path>
    
</svg>