<svg xmlns="http://www.w3.org/2000/svg" viewBox="0 0 1024 1024">
  
        <path d="M154.1632 209.8688c20.4288-22.528 48.7936-35.84 79.0528-35.84h238.9504a30.72 30.72 0 0 1 22.7328 10.1376l70.5024 77.6704h225.3312c30.3104 0 58.6752 13.312 79.104 35.84 20.3264 22.3744 31.232 52.1216 31.232 82.6368v351.1296c0 30.5152-10.9056 60.3136-31.232 82.688-20.48 22.528-48.7936 35.7888-79.104 35.7888H233.216c-30.2592 0-58.624-13.312-79.0528-35.7888a123.2384 123.2384 0 0 1-31.2832-82.688V292.5568c0-30.5152 10.9568-60.3136 31.2832-82.688z m79.0528 25.6a45.4144 45.4144 0 0 0-33.536 15.6672c-9.5744 10.5472-15.36 25.3952-15.36 41.472v438.784c0 16.0768 5.7856 30.9248 15.36 41.472a45.4144 45.4144 0 0 0 33.536 15.616h557.568c11.9296 0 24.064-5.2224 33.536-15.616 9.5232-10.5472 15.36-25.3952 15.36-41.472V380.3648c0-16.0256-5.8368-30.8736-15.36-41.4208a45.4144 45.4144 0 0 0-33.5872-15.616h-238.8992a30.72 30.72 0 0 1-22.784-10.0864L458.5472 235.52h-225.28z"></path>
    
</svg>