<svg xmlns="http://www.w3.org/2000/svg" viewBox="0 0 1024 1024">
  
        <path d="M787.9168 148.48a106.8032 106.8032 0 0 1 106.3936 97.4336l0.4096 9.3696v380.416a106.8032 106.8032 0 0 1-97.4336 106.4448l-9.3696 0.4096-141.4144-0.0512 16.896 67.7376 32.1024 32.0512c16.896 16.896 8.5504 44.3392-12.1344 50.944l-4.608 1.1264-4.9664 0.3584H369.408a30.72 30.72 0 0 1-24.9344-48.64l3.2256-3.7888 32-32.0512 16.896-67.7376h-141.312c-22.016 0-43.3664-6.7584-61.184-19.2l-7.424-5.6832-6.912-6.3488a106.8032 106.8032 0 0 1-30.8736-66.1504l-0.4096-9.3696V255.2832a106.8032 106.8032 0 0 1 97.4336-106.3936l9.3696-0.4096h532.6336z m-204.8 593.8688H460.032l-22.7328 90.9312h168.6528l-22.7328-90.9312z m250.1632-153.6H209.92v47.0016a45.3632 45.3632 0 0 0 39.424 44.9536l5.9392 0.4096 107.7248-0.0512V680.96h378.88v0.1024h46.0288a45.3632 45.3632 0 0 0 27.5968-9.3184l4.4544-3.9424a45.3632 45.3632 0 0 0 12.9024-26.112l0.4096-5.9392V588.8z m-45.3632-378.88H255.2832a45.3632 45.3632 0 0 0-44.9536 39.424l-0.4096 5.9904V527.36h623.36V255.2832a45.3632 45.3632 0 0 0-45.3632-45.3632z"></path>
    
</svg>