<svg xmlns="http://www.w3.org/2000/svg" viewBox="0 0 1024 1024">
  
        <path d="M108.4928 185.4464a127.1296 127.1296 0 0 1 84.8896-31.8976h637.2352c31.2832 0 61.9008 11.1616 84.9408 31.8976 23.0912 20.8384 36.8128 49.7664 36.8128 80.7424V757.76c0 30.976-13.7216 59.9552-36.864 80.7936a127.0784 127.0784 0 0 1-84.8896 31.8464H193.3824a127.1296 127.1296 0 0 1-84.8896-31.8464l20.5312-22.8352-20.5312 22.8352a108.6976 108.6976 0 0 1-36.864-80.7936V266.24c0-31.0272 13.7216-59.9552 36.864-80.7936z m84.8896 29.5424c-16.9472 0-32.6656 6.144-43.776 16.128a47.3088 47.3088 0 0 0-16.5376 35.072V757.76c0 12.4928 5.4784 25.1904 16.5376 35.1232 11.1104 9.984 26.8288 16.0768 43.776 16.0768h637.2352c16.9984 0 32.7168-6.0928 43.8272-16.0768a47.3088 47.3088 0 0 0 16.4864-35.1232V266.24a47.3088 47.3088 0 0 0-16.4864-35.1232 65.7408 65.7408 0 0 0-43.8272-16.128H193.3824z"></path>
        <path d="M722.2784 639.3856c-73.1136 0-118.8352-47.9232-118.8352-124.672v-0.3584c0-76.5952 46.08-124.4672 118.784-124.4672 73.2672 0 119.04 47.872 119.04 124.4672v0.3584c0 76.8-45.568 124.672-119.04 124.672z m0-50.7392c35.0208 0 56.7296-28.672 56.7296-73.9328v-0.3584c0-45.568-22.2208-73.728-56.7296-73.728-34.2528 0-56.4224 28.0064-56.4224 73.728v0.3584c0 45.7216 22.016 73.9328 56.3712 73.9328zM393.984 635.0336V394.24h104.3456c58.2144 0 91.136 28.8768 91.136 79.9232v0.3584c0 30.8736-16.0768 57.5488-41.1136 68.4032l48.2304 92.16H527.872l-41.4208-82.944h-31.232v82.944H394.0352z m61.2864-127.3344h36.1984c21.7088 0 35.5328-13.0048 35.5328-33.3824v-0.3072c0-20.224-14.336-33.536-35.84-33.536h-35.8912v67.2256zM185.9072 635.0336V394.24h102.656c53.76 0 88.4736 33.6896 88.4736 85.248v0.3584c0 51.5584-34.7136 84.5824-88.4736 84.5824h-41.3696v70.656H185.856zM273.92 441.1392h-26.6752v77.2608h26.6752c25.856 0 41.216-13.5168 41.216-38.5536v-0.3584c0-25.0368-15.36-38.4-41.216-38.4z"></path>
    
</svg>