<svg xmlns="http://www.w3.org/2000/svg" viewBox="0 0 1024 1024">
  
        <path d="M461.1584 64.5632a105.728 105.728 0 0 1 144.4864-0.3072c79.872 74.24 193.024 206.7456 193.024 363.1616V491.52l99.328 41.3696a116.0704 116.0704 0 0 1 71.3728 107.1104v116.0704H97.28V640c0-46.848 28.16-89.088 71.424-107.1104L267.9296 491.52V427.4176c0-156.3136 113.8688-288.7168 193.2288-362.8544zM329.3696 694.6304H737.28V427.4176c0-128.7168-95.232-245.4528-173.4144-318.1568a44.288 44.288 0 0 0-60.7744 0.2048c-77.9776 72.8576-173.7216 189.44-173.7216 317.952v267.2128z m469.3504 0h109.2096V640c0-22.016-13.2608-41.984-33.5872-50.432L798.72 558.08v136.5504z m-530.7904 0V558.08l-75.6224 31.488a54.6304 54.6304 0 0 0-33.5872 50.432v54.6304h109.2096z m265.4208-322.56a33.28 33.28 0 1 0 0 66.56 33.28 33.28 0 0 0 0-66.56z m-94.72 33.28a94.72 94.72 0 1 1 189.44 0 94.72 94.72 0 0 1-189.44 0zM384 822.6304a30.72 30.72 0 0 1 30.72 30.72v42.6496a30.72 30.72 0 1 1-61.44 0v-42.6496a30.72 30.72 0 0 1 30.72-30.72z m170.6496 0a30.72 30.72 0 0 1 30.72 30.72v128a30.72 30.72 0 0 1-61.44 0v-128a30.72 30.72 0 0 1 30.72-30.72z m170.7008 0a30.72 30.72 0 0 1 30.72 30.72v42.6496a30.72 30.72 0 0 1-61.44 0v-42.6496a30.72 30.72 0 0 1 30.72-30.72z"></path>
    
</svg>