<svg xmlns="http://www.w3.org/2000/svg" viewBox="0 0 1024 1024">
  
        <path d="M153.6 207.5648h242.9952l161.9968 79.7696h134.9632l80.9984 132.9664 161.9968 26.624v248.4224l-150.2208-91.904-125.4912 100.7616L729.7536 819.2H153.6V207.5648z" fill="#2B2111"></path>
        <path d="M778.5472 494.08a30.72 30.72 0 0 1 28.9792 20.48l43.4688 123.136 107.008 37.888a30.72 30.72 0 0 1 0 57.9072l-107.008 37.888-43.4688 123.136a30.72 30.72 0 0 1-57.9072 0l-43.52-123.0848-107.008-37.888a30.72 30.72 0 0 1 0-57.9584l107.008-37.888 43.52-123.136a30.72 30.72 0 0 1 28.928-20.48z m0 123.0336l-19.3536 54.8352a30.72 30.72 0 0 1-18.688 18.7392l-39.1168 13.824 39.1168 13.8752a30.72 30.72 0 0 1 18.688 18.7392l19.3536 54.8864 19.4048-54.8864a30.72 30.72 0 0 1 18.688-18.7392l39.1168-13.824-39.1168-13.824a30.72 30.72 0 0 1-18.688-18.7904l-19.4048-54.8352z m-147.968 156.5696a30.72 30.72 0 0 1 30.72 30.72v9.216h11.52a30.72 30.72 0 0 1 0 61.44h-11.5712v9.216a30.72 30.72 0 1 1-61.44 0v-9.216h-11.5712a30.72 30.72 0 1 1 0-61.44h11.5712v-9.216a30.72 30.72 0 0 1 30.72-30.72z" fill="#D89614"></path>
        <path d="M921.2928 401.1008a123.2896 123.2896 0 0 0-68.352-28.3136l-10.8544-0.512h-58.0608l0.0512-12.6464c0-32.768-13.0048-64.1024-36.096-87.1936l-7.9872-7.3216a123.2896 123.2896 0 0 0-79.2064-28.8256H492.9024L411.904 155.136a32.6144 32.6144 0 0 0-23.0912-9.5232H207.5136a123.2896 123.2896 0 0 0-123.2896 123.2896v453.2736a123.2896 123.2896 0 0 0 123.2896 123.2896H456.0384a32.6656 32.6656 0 1 0-3.1232-65.28H316.16l3.072-5.9392c7.5264-16.128 11.5712-33.8944 11.5712-52.0704V495.616a58.0096 58.0096 0 0 1 58.0096-58.0608h453.2736a58.0096 58.0096 0 0 1 58.0608 58.0608v26.9312a32.768 32.768 0 1 0 65.2288 2.2528V495.616c0-32.768-12.9536-64.1024-36.096-87.1936l-7.9872-7.3216zM207.5136 210.944h167.7312l81.152 81.1008c6.144 6.144 14.4384 9.5232 23.04 9.5232h181.3504c15.36 0 30.1568 6.144 41.0112 16.9984l4.4032 4.9152c8.1408 10.24 12.5952 22.9376 12.5952 36.1472v12.6464H388.8128A123.2896 123.2896 0 0 0 265.5232 495.616v226.6112a58.0096 58.0096 0 0 1-51.456 57.6512l-6.5536 0.4096a58.0096 58.0096 0 0 1-58.0608-58.0608V268.9536A58.0096 58.0096 0 0 1 207.5136 210.944z" fill="#D89614"></path>
    
</svg>