<svg xmlns="http://www.w3.org/2000/svg" viewBox="0 0 1075 1024">
  
        <path d="M309.6576 380.1088c-71.168 0-125.7472 57.6512-125.7472 132.096a131.7376 131.7376 0 0 0 247.04 63.744 30.72 30.72 0 0 1 53.76 29.8496 193.1776 193.1776 0 0 1-362.24-93.6448c0-105.0624 78.8992-193.536 187.1872-193.536 79.872 0 121.6512 43.4176 154.1632 77.2096 5.3248 5.4784 10.3936 10.752 15.36 15.5136l0.2048 0.2048 158.8736 156.7744c8.8576 7.68 16.6912 14.848 24.0128 21.6576 12.8 11.776 24.2176 22.3232 37.5808 32 19.2512 13.9264 37.6832 21.9136 59.6992 21.9136a131.7376 131.7376 0 1 0 0-263.4752c-32.3072 0-50.2272 5.0176-67.6864 15.7184-19.7632 12.1856-40.1408 32.256-75.9808 68.096a30.72 30.72 0 0 1-43.4176-43.4176l2.5088-2.56c32.5632-32.5632 58.0096-58.0096 84.6848-74.4448 29.696-18.2784 59.648-24.832 99.84-24.832a193.1776 193.1776 0 0 1 0 386.3552c-39.1168 0-69.9904-15.0016-95.6416-33.5872-16.0768-11.6224-32.4096-26.624-47.104-40.0896-6.912-6.3488-13.4656-12.3904-19.456-17.5104l-0.768-0.6656-160.2048-158.0544c-6.8608-6.656-13.2096-13.1072-19.2-19.2-32.0512-32.6144-55.1936-56.1152-107.52-56.1152z"></path>
    
</svg>