<svg xmlns="http://www.w3.org/2000/svg" viewBox="0 0 1024 1024">
  
        <path d="M208.0768 156.8768A116.0704 116.0704 0 0 1 290.1504 122.88h289.536c18.7392 0 36.7104 7.168 50.3296 19.968l229.6832 178.7904a30.208 30.208 0 0 1 2.8672 2.56c13.7216 13.7216 21.504 32.4096 21.504 51.8656v408.9856A116.0704 116.0704 0 0 1 768 901.12H418.1504a30.72 30.72 0 1 1 0-61.44H768a54.6304 54.6304 0 0 0 54.6304-54.6304V376.064a11.9808 11.9808 0 0 0-2.6624-7.4752l-229.0176-178.2272a31.0784 31.0784 0 0 1-2.8672-2.56 11.9296 11.9296 0 0 0-8.3968-3.4816H290.1504A54.6304 54.6304 0 0 0 235.52 238.9504v418.0992a30.72 30.72 0 1 1-61.44 0V238.9504c0-30.8224 12.2368-60.3136 33.9968-82.0736zM503.6032 413.696a158.72 158.72 0 1 1-88.6784 289.9456l-188.416 188.416a30.72 30.72 0 0 1-43.4176-43.4176l188.7232-188.7232A158.72 158.72 0 0 1 503.6032 413.696z m68.864 89.3952a97.28 97.28 0 1 0-136.4992 138.6496 97.28 97.28 0 0 0 136.4992-138.6496z"></path>
    
</svg>