<svg xmlns="http://www.w3.org/2000/svg" viewBox="0 0 1024 1024">
  
        <path d="M713.3696 153.6c-27.3408 0-53.7088 9.6256-74.496 27.0336l-7.5264 6.912-468.736 467.7632a30.72 30.72 0 0 0-9.0112 21.76V798.72a30.72 30.72 0 0 0 30.72 30.72h119.4496l4.864-0.4096a30.72 30.72 0 0 0 16.896-8.5504L742.4 404.3264l1.3824-1.024 2.7136-2.7136 0.8192-1.1776 48.128-47.9232A115.8144 115.8144 0 0 0 713.3696 153.6z m-105.3696 139.3664l78.3872 80.4864L291.0208 768H215.04v-78.2848l392.96-396.8zM713.3696 215.04A54.7328 54.7328 0 0 1 768 269.5168l-0.3584 6.144c-1.3824 12.1344-6.8608 23.552-15.616 32.3072l-18.432 18.3808-76.4928-78.8992 38.1952-29.3376c5.7856-2.048 11.8784-3.072 18.0736-3.072z"></path>
    
</svg>