<svg xmlns="http://www.w3.org/2000/svg" viewBox="0 0 1024 1024">
  
        <path d="M705.145905 221.574095H248.344381a55.734857 55.734857 0 0 0-55.588571 55.588572v503.612952c0 30.768762 25.258667 55.588571 55.588571 55.588571h300.714667c-3.218286-149.211429 48.225524-439.832381 156.086857-614.790095z" fill="#298FD4"></path>
        <path d="M811.690667 204.995048c-31.207619-27.989333-69.339429-16.530286-106.544762 16.579047-5.510095 5.022476-10.971429 10.532571-16.481524 16.042667-63.878095 67.925333-123.513905 193.77981-141.897143 289.743238 7.314286 14.628571 12.824381 33.01181 16.481524 47.299048 0.975238 3.608381 1.901714 6.826667 2.340571 10.044952 1.852952 6.92419 2.29181 11.50781 2.29181 11.50781s-0.487619-2.29181-2.730667-9.167239c-0.487619-1.462857-0.975238-2.779429-1.414095-4.583619-0.438857-0.975238-0.438857-1.462857-0.877714-2.340571-4.144762-9.606095-15.60381-30.281143-20.675048-39.009524-4.144762 12.824381-8.289524 24.771048-11.507809 35.791238 14.726095 26.624 23.405714 72.996571 23.405714 72.996572l-4.583619-13.312c-3.218286-9.167238-19.748571-37.64419-23.405715-44.519619-6.38781 24.33219-9.167238 40.862476-6.826666 45.007238 4.534857 7.801905 9.118476 21.113905 12.775619 35.791238 8.777143 33.54819 14.726095 73.923048 14.726095 73.923047s0 2.779429 0.487619 6.875429a630.491429 630.491429 0 0 0 1.804191 83.577905c2.730667 34.864762 8.289524 64.75581 15.11619 80.798476l4.632381-2.779429c-10.093714-31.646476-14.238476-72.508952-12.385524-120.246857 2.730667-72.557714 19.260952-160.719238 50.468572-252.099047 52.370286-138.191238 124.928-248.832 191.000381-301.641143-60.562286 54.613333-142.287238 231.424-166.668191 297.057524-27.550476 73.48419-46.811429 142.336-58.758095 208.018285 20.187429-62.025143 85.430857-88.161524 85.430857-88.161524s32.085333-39.497143 69.290667-95.963428c-22.479238 5.022476-59.196952 13.750857-71.582476 19.260952-18.383238 7.801905-23.015619 10.093714-23.01562 10.093715s58.806857-35.791238 109.763048-52.321524c70.265905-110.201905 146.041905-265.898667 69.339429-334.262857z" fill="#175A7A"></path>
    
</svg>