<svg xmlns="http://www.w3.org/2000/svg" viewBox="0 0 1075 1024">
  
        <path d="M884.224 291.328c-7.4752-112.8448-173.1072-193.4336-371.8144-193.4336-203.3152 0-372.0704 84.3776-372.0704 201.3696v426.7008l0.256 7.936c6.912 104.704 149.9648 181.6064 329.216 192.2048v-0.1536c19.6096 0.9728 28.672-6.144 33.4336-21.4016 5.0688-16.1792-3.6864-35.584-20.4288-38.8608a56.7296 56.7296 0 0 0-13.0048-1.1776c-152.9856-10.0352-268.032-73.0112-268.032-138.5472v-100.352c59.392 48.4352 156.7744 80.5888 268.032 87.1424v-0.256c19.5584 0.9216 28.6208-6.144 33.3824-21.4016 5.0176-16.128-3.6864-35.4816-20.3776-38.7072a57.0368 57.0368 0 0 0-13.0048-1.2288c-152.9856-10.0352-268.032-72.96-268.032-138.5472v-100.352c66.9184 54.5792 181.8112 88.4224 310.6304 88.4224s243.712-33.8432 310.6816-88.4224l-0.1024 100.352c0 1.3312 0 2.6112-0.1024 3.9424h0.3072a30.6176 30.6176 0 0 0 61.2352 0V299.264l-0.256-7.8848z m-682.1376 2.048c7.3216-69.376 141.4144-134.0416 310.272-134.0416 173.7728 0 310.6816 68.4544 310.6816 139.9296 0 71.5264-136.9088 139.9808-310.6304 139.9808-173.7728 0-310.6304-68.4544-310.6304-139.9808l0.3072-5.9392zM773.632 579.072a30.72 30.72 0 0 0-61.44 0v122.88h-122.88a30.72 30.72 0 1 0 0 61.44h122.88v122.88a30.72 30.72 0 1 0 61.44 0v-122.88h122.88a30.72 30.72 0 0 0 0-61.44h-122.88v-122.88z"></path>
    
</svg>