<svg xmlns="http://www.w3.org/2000/svg" viewBox="0 0 1024 1024">
  
        <path d="M176.7424 198.6048h614.4l25.6 204.8h-665.6l25.6-204.8z" fill="#11241C"></path>
        <path d="M150.8864 222.208c18.688-25.088 46.2848-41.984 77.824-41.984h525.7216c31.5392 0 59.0848 16.896 77.7728 41.984 18.5344 24.9856 28.0576 57.344 28.0576 89.8048v101.0688a30.72 30.72 0 0 1-30.72 30.72h-307.2512v373.6064a30.72 30.72 0 0 1-30.72 30.72H228.6592c-31.488 0-59.0848-16.896-77.7728-41.984-18.5344-24.9856-28.0576-57.344-28.0576-89.8048V312.0128c0-32.4608 9.5232-64.8192 28.0576-89.8048z m309.9648 221.5936H184.2688v140.7488h276.5824V443.8016z m0 202.1888H184.2688v70.3488c0 21.0944 6.3488 40.192 15.9744 53.1456 9.472 12.8 20.1216 17.2032 28.416 17.2032h232.192v-140.6976zM184.2688 382.3616h614.5536V312.0128c0-21.1456-6.2976-40.192-15.9232-53.1456-9.5232-12.8-20.1216-17.2032-28.4672-17.2032H228.6592c-8.2944 0-18.944 4.4032-28.416 17.2032-9.6256 12.9536-15.9744 32-15.9744 53.1456v70.3488z m543.488 130.3552a68.1472 68.1472 0 0 1 95.5904-16.5888l68.608 48.1792c30.8224 21.6576 39.168 64.3584 17.5616 95.744l-15.36 22.2208c10.1888 22.6304 14.848 44.7488 13.9264 66.8672-1.0752 27.5456-10.7008 52.224-24.0128 74.9056-15.36 26.2144-48.3328 29.7472-69.9904 14.5408l-84.3264-59.1872-57.4976 83.4048a30.72 30.72 0 1 1-50.5856-34.8672l57.856-83.8656-84.7872-59.5456c-21.504-15.104-29.5936-47.104-10.752-70.5536 16.4864-20.48 36.1472-38.1952 61.4912-48.896a143.872 143.872 0 0 1 66.9184-10.0864l15.36-22.272z m11.9296 178.5344l0.0512 0.0512 98.0992 68.9152c5.632-11.9808 8.448-22.8864 8.8576-33.536 0.5632-14.1312-3.0208-30.72-14.8992-51.6096l-9.5232-16.7424 36.6592-53.1968a7.7312 7.7312 0 0 0-2.2528-10.5472l-68.608-48.1792c-3.8912-2.7648-7.936-1.4336-9.728 1.1776l-25.856 37.5296a30.72 30.72 0 0 1-30.4128 12.8c-23.552-3.9424-39.9872-1.536-52.736 3.7888-9.7792 4.096-18.9952 10.7008-28.2624 20.2752l98.6112 69.2736z" fill="#078C49"></path>
    
</svg>