<svg xmlns="http://www.w3.org/2000/svg" viewBox="0 0 1024 1024">
  
        <path d="M122.88 256a30.72 30.72 0 0 1 30.72-30.72h525.6704a30.72 30.72 0 0 1 0 61.44H153.6a30.72 30.72 0 0 1-30.72-30.72z m0 234.6496a30.72 30.72 0 0 1 30.72-30.72h435.2a30.72 30.72 0 1 1 0 61.44H153.6a30.72 30.72 0 0 1-30.72-30.72z m576.512 25.8048a30.72 30.72 0 0 1 43.4688-1.1776l148.6848 140.8a30.72 30.72 0 0 1 0 44.5952l-148.6848 140.8a30.72 30.72 0 1 1-42.24-44.544l92.672-87.808H588.8a30.72 30.72 0 1 1 0-61.44h204.4928l-92.672-87.808a30.72 30.72 0 0 1-1.1776-43.4176zM122.88 725.3504a30.72 30.72 0 0 1 30.72-30.72h307.2a30.72 30.72 0 1 1 0 61.44H153.6a30.72 30.72 0 0 1-30.72-30.72z"></path>
    
</svg>