<svg xmlns="http://www.w3.org/2000/svg" viewBox="0 0 1024 1024">
  
        <path d="M369.152 242.688a107.008 107.008 0 0 1 107.52-107.008h168.2432c59.392 0 107.52 48.128 107.52 107.52v73.216c46.6944 25.344 80.64 56.32 103.9872 93.4912 26.0096 41.472 37.3248 88.064 40.96 138.0352 2.8672 40.448-30.3104 71.3216-67.7888 71.3216h-238.08v238.08a30.72 30.72 0 1 1-61.44 0v-238.08h-238.08c-37.4272 0-70.656-30.8224-67.7376-71.3216 3.584-49.92 14.8992-96.6144 40.9088-138.0352 23.3472-37.1712 57.2928-68.096 103.9872-93.44V242.6368z m191.6416 315.136h268.8a7.168 7.168 0 0 0 5.12-2.048 4.1984 4.1984 0 0 0 1.3312-3.3792c-3.1232-43.6736-12.6976-79.616-31.6416-109.824-18.8416-30.0032-48.4864-56.7808-96-79.616l-17.408-8.3968V243.2a46.08 46.08 0 0 0-46.08-46.08H476.672a45.568 45.568 0 0 0-46.08 45.568v92.5696a30.72 30.72 0 0 1-17.408 27.648c-47.5136 22.8864-77.1584 49.664-96 79.6672-18.944 30.208-28.5184 66.1504-31.6416 109.824a4.1984 4.1984 0 0 0 1.3312 3.3792 7.168 7.168 0 0 0 5.12 2.048h268.8z"></path>
    
</svg>