<svg xmlns="http://www.w3.org/2000/svg" viewBox="0 0 1024 1024">
  
        <path d="M256 139.9296a30.72 30.72 0 0 1 30.72 30.72v400.128a116.0704 116.0704 0 0 1 0 223.7952v58.7776a30.72 30.72 0 1 1-61.44 0v-58.7776a116.0704 116.0704 0 0 1 0-223.7952V170.6496a30.72 30.72 0 0 1 30.72-30.72z m256 0a30.72 30.72 0 0 1 30.72 30.72v58.7776a116.0192 116.0192 0 0 1 0 223.8464v400.0768a30.72 30.72 0 0 1-61.44 0V453.2736a116.0704 116.0704 0 0 1 0-223.8464V170.6496a30.72 30.72 0 0 1 30.72-30.72z m256 0a30.72 30.72 0 0 1 30.72 30.72v400.128a116.0704 116.0704 0 0 1 0 223.7952v58.7776a30.72 30.72 0 0 1-61.44 0v-58.7776a116.0704 116.0704 0 0 1 0-223.7952V170.6496a30.72 30.72 0 0 1 30.72-30.72zM512 286.72a54.6304 54.6304 0 1 0 0 109.2608A54.6304 54.6304 0 0 0 512 286.72z m-256 341.3504A54.5792 54.5792 0 1 0 256 737.28a54.5792 54.5792 0 0 0 0-109.2096z m512 0a54.6304 54.6304 0 1 0 0 109.2096 54.6304 54.6304 0 0 0 0-109.2096z"></path>
    
</svg>