<svg xmlns="http://www.w3.org/2000/svg" viewBox="0 0 1024 1024">
  
        <path d="M213.3504 158.72A54.6304 54.6304 0 0 0 158.72 213.3504v384a54.5792 54.5792 0 0 0 54.6304 54.5792h128a30.72 30.72 0 0 1 21.7088 9.0112L512 809.8816l148.9408-148.9408a30.72 30.72 0 0 1 21.7088-9.0112h128a54.6304 54.6304 0 0 0 54.6304-54.5792v-384A54.6304 54.6304 0 0 0 810.6496 158.72H213.3504z m-82.0736-27.4432A116.0704 116.0704 0 0 1 213.3504 97.28h597.2992A116.0704 116.0704 0 0 1 926.72 213.3504v384a116.0192 116.0192 0 0 1-116.0704 116.0192h-115.2512l-161.6896 161.6896a30.72 30.72 0 0 1-43.4176 0l-161.6896-161.6896H213.3504A116.0704 116.0704 0 0 1 97.28 597.3504v-384c0-30.8224 12.2368-60.3136 33.9968-82.0736z m136.704 210.0736a30.72 30.72 0 0 1 30.72-30.72h426.6496a30.72 30.72 0 0 1 0 61.44H298.6496a30.72 30.72 0 0 1-30.72-30.72z m0 170.6496a30.72 30.72 0 0 1 30.72-30.72h170.6496a30.72 30.72 0 0 1 0 61.44H298.6496a30.72 30.72 0 0 1-30.72-30.72z"></path>
    
</svg>