<svg xmlns="http://www.w3.org/2000/svg" viewBox="0 0 1024 1024">
  
        <path d="M482.304 185.6512A327.68 327.68 0 0 0 185.6 482.304a30.72 30.72 0 0 1 7.7824-1.024h79.616a30.72 30.72 0 0 1 0 61.44H193.4336a30.72 30.72 0 0 1-7.7824-0.9216 327.68 327.68 0 0 0 296.6016 296.6016 30.7712 30.7712 0 0 1-1.024-7.7824v-79.616a30.72 30.72 0 1 1 61.44 0v79.616a30.72 30.72 0 0 1-0.9216 7.7312 327.68 327.68 0 0 0 296.6016-296.5504 30.72 30.72 0 0 1-7.7824 0.9728h-79.616a30.72 30.72 0 1 1 0-61.44h79.616a30.72 30.72 0 0 1 7.7312 1.024 327.68 327.68 0 0 0-296.5504-296.6528 30.72 30.72 0 0 1 0.9728 7.7824v79.616a30.72 30.72 0 1 1-61.44 0V193.4336a30.72 30.72 0 0 1 1.024-7.7824z m-245.4528 51.2a389.12 389.12 0 1 1 550.2976 550.2976A389.12 389.12 0 0 1 236.8512 236.8512z"></path>
        <path d="M597.2992 512a85.3504 85.3504 0 1 1-170.6496 0 85.3504 85.3504 0 0 1 170.6496 0z"></path>
    
</svg>