<svg xmlns="http://www.w3.org/2000/svg" viewBox="0 0 1024 1024">
  
        <path d="M482.742857 274.822095v351.963429a29.257143 29.257143 0 1 0 58.514286 0V274.822095l112.64 112.64a29.257143 29.257143 0 0 0 41.350095-41.447619l-162.523428-162.523428a29.257143 29.257143 0 0 0-41.398858 0L328.801524 346.063238a29.257143 29.257143 0 0 0 41.350095 41.350095l112.64-112.591238z m-266.581333 384.487619a29.257143 29.257143 0 0 0-58.514286 0v40.618667a151.161905 151.161905 0 0 0 151.161905 151.161905h406.381714a151.161905 151.161905 0 0 0 151.161905-151.161905v-40.618667a29.257143 29.257143 0 0 0-58.514286 0v40.618667a92.647619 92.647619 0 0 1-92.647619 92.647619H308.809143a92.647619 92.647619 0 0 1-92.647619-92.647619v-40.618667z"></path>
    
</svg>