<svg xmlns="http://www.w3.org/2000/svg" viewBox="0 0 1024 1024">
  
        <path d="M102.7584 215.4496c20.5824-25.3952 50.0224-41.3696 82.432-41.3696h579.9424c32.4608 0 61.9008 15.9744 82.432 41.3696 20.4288 25.2416 31.1296 58.3168 31.1296 91.7504v102.4a30.72 30.72 0 0 1-30.72 30.72H505.856V819.2a30.72 30.72 0 0 1-30.72 30.72H185.2416c-32.4608 0-61.952-15.9744-82.432-41.4208C82.2784 783.36 71.68 750.2336 71.68 716.8V307.2c0-33.4336 10.7008-66.5088 31.0784-91.7504zM444.4672 440.32H133.12v143.36h311.296V440.32z m0 204.8H133.12V716.8c0 20.8896 6.7584 39.936 17.408 53.0944 10.5472 13.0048 23.2448 18.5856 34.7136 18.5856H444.416v-143.36zM133.12 378.88h684.1344V307.2c0-20.8896-6.8096-39.936-17.408-53.0944-10.5472-13.0048-23.2448-18.5856-34.7136-18.5856H185.2416c-11.4688 0-24.1664 5.5808-34.7136 18.5856-10.6496 13.2096-17.408 32.256-17.408 53.0944v71.68z m596.2752 163.84c-22.4256 0-43.8784 8.8576-59.648 24.576a83.456 83.456 0 0 0 27.3408 136.448 84.7872 84.7872 0 0 0 91.9552-18.176 83.712 83.712 0 0 0 24.576-59.136 83.456 83.456 0 0 0-24.576-59.136 84.5824 84.5824 0 0 0-59.648-24.576z m-102.9632-18.944a146.0224 146.0224 0 0 1 205.9264 0 144.896 144.896 0 0 1 19.5584 181.248l55.1936 54.9376a30.72 30.72 0 1 1-43.3152 43.52l-55.3984-55.0912a146.3808 146.3808 0 0 1-134.7072 12.1344 145.7664 145.7664 0 0 1-78.8992-78.4896 144.7424 144.7424 0 0 1 31.5904-158.3104z"></path>
    
</svg>