<svg xmlns="http://www.w3.org/2000/svg" viewBox="0 0 1024 1024">
  
        <path d="M180.5312 204.8h645.9392l26.9312 204.8H153.6l26.9312-204.8z" fill="#11241C"></path>
        <path d="M150.8864 222.208c18.688-25.088 46.2848-41.984 77.824-41.984h525.7216c31.5392 0 59.0848 16.896 77.7728 41.984 18.5344 24.9856 28.0576 57.344 28.0576 89.8048v101.0688a30.72 30.72 0 0 1-30.72 30.72h-307.2512v373.6064a30.72 30.72 0 0 1-30.72 30.72H228.6592c-31.488 0-59.0848-16.896-77.7728-41.984-18.5344-24.9856-28.0576-57.344-28.0576-89.8048V312.0128c0-32.4608 9.5232-64.8192 28.0576-89.8048z m309.9648 221.5936H184.2688v140.7488h276.5824V443.8016z m0 202.1888H184.2688v70.3488c0 21.0944 6.3488 40.192 15.9744 53.1456 9.472 12.8 20.1216 17.2032 28.416 17.2032h232.192v-140.6976zM184.2688 382.3616h614.5536V312.0128c0-21.1456-6.2976-40.192-15.9232-53.1456-9.5232-12.8-20.1216-17.2032-28.4672-17.2032H228.6592c-8.2944 0-18.944 4.4032-28.416 17.2032-9.6256 12.9536-15.9744 32-15.9744 53.1456v70.3488zM784.4864 455.68a30.72 30.72 0 0 1 28.9792 20.48l44.8512 126.976 110.3872 39.1168a30.72 30.72 0 0 1 0 57.9072l-110.3872 39.1168-44.8512 126.976a30.72 30.72 0 0 1-57.9072 0l-44.8512-126.976-110.3872-39.1168a30.72 30.72 0 0 1 0-57.856l110.3872-39.168 44.8512-126.976a30.72 30.72 0 0 1 28.9792-20.48z m0 123.0336l-20.6848 58.7264a30.72 30.72 0 0 1-18.7392 18.7392l-42.496 15.0528 42.496 15.0528a30.72 30.72 0 0 1 18.7392 18.7392l20.736 58.7264 20.736-58.7264a30.72 30.72 0 0 1 18.688-18.7392l42.496-15.0528-42.496-15.0528a30.72 30.72 0 0 1-18.688-18.7392l-20.736-58.7264z m-152.1664 164.4544a30.72 30.72 0 0 1 30.72 30.72v10.3424h12.8a30.72 30.72 0 0 1 0 61.44h-12.8v10.3936a30.72 30.72 0 0 1-61.44 0v-10.3936h-12.8a30.72 30.72 0 1 1 0-61.44h12.8v-10.3424a30.72 30.72 0 0 1 30.72-30.72z" fill="#078C49"></path>
    
</svg>