<svg xmlns="http://www.w3.org/2000/svg" viewBox="0 0 1024 1024">
  
        <path d="M512 97.28a414.72 414.72 0 0 1 328.2944 668.0064l-8.0896 9.984-1.3824 2.048-2.6112 3.0208-0.8192 0.768-10.0864 11.52-12.0832 12.5952c-12.8 12.8-26.4192 24.7808-41.0624 35.9936l-15.0016 10.9568-6.2464 4.2496a349.184 349.184 0 0 1-53.9648 30.9248l-15.0528 6.5536-22.2208 8.6016a414.3104 414.3104 0 0 1-102.3488 22.528l-17.7152 1.2288L512 926.72a414.5664 414.5664 0 0 1-104.0384-13.312l-17.1008-4.8128-16.6912-5.4784a357.0176 357.0176 0 0 1-97.28-48.896l-12.1856-9.0624-19.2512-15.4624-6.912-5.9392-7.168-6.4512-12.6464-12.0832-6.4-6.5024-6.5536-7.0144-11.52-13.1584a414.4128 414.4128 0 0 1-50.2784-75.3664l-8.0896-16.4864-7.0656-15.9744A414.72 414.72 0 0 1 512 97.28z m-0.3072 616.0896l-19.2512 0.3072a563.9168 563.9168 0 0 0-206.6432 46.6944l-16.128 7.3216 10.24 9.728 10.4448 9.3696 6.4 5.376 12.5952 9.216c16.896 11.776 34.7136 22.1184 52.992 30.6176l13.7728 6.144 15.8208 6.144 12.3904 3.8912c22.0672 6.5024 46.2336 11.264 72.6016 14.2848l20.1216 1.8432 13.6704 0.9728 16.7936-1.024a444.3136 444.3136 0 0 0 89.856-15.6672l13.0048-4.096 13.9264-5.0176 2.7136-1.024 14.336-6.2976c9.2672-4.352 18.432-9.0624 27.136-14.08l12.6976-7.68 7.9872-5.376 5.12-3.6864c11.6736-8.6016 21.3504-16.896 33.024-27.9552l6.2464-6.0416-14.592-6.656a562.5344 562.5344 0 0 0-186.7776-45.9264l-19.456-1.024-21.0432-0.3584zM512 158.72a353.28 353.28 0 0 0-332.8 471.8592l6.144 15.9744 6.5024 14.7968c9.728 20.8896 21.504 40.7552 34.9184 59.0848l-5.632 2.7648a625.3568 625.3568 0 0 1 270.6432-70.9632l20.736-0.3072 21.8112 0.4096c87.2448 3.072 171.52 23.9616 249.088 61.1328l13.824 6.9632a353.1264 353.1264 0 0 0-35.4304-458.24A353.28 353.28 0 0 0 511.9488 158.72z m0 109.2096a158.72 158.72 0 1 1 0 317.4912 158.72 158.72 0 0 1 0-317.44z m0 61.44a97.28 97.28 0 1 0 0 194.56 97.28 97.28 0 0 0 0-194.56z"></path>
    
</svg>