<svg xmlns="http://www.w3.org/2000/svg" viewBox="0 0 1024 1024">
  
        <path d="M486.4 174.08a30.72 30.72 0 0 1 30.72 30.72v276.48h276.48a30.72 30.72 0 1 1 0 61.44h-276.48V819.2a30.72 30.72 0 1 1-61.44 0v-276.48H179.2a30.72 30.72 0 1 1 0-61.44h276.48V204.8a30.72 30.72 0 0 1 30.72-30.72z m245.76 438.5792a98.9696 98.9696 0 0 1 168.96 69.9904v37.5808h3.4304a64.8192 64.8192 0 0 1 64.8192 64.8192v102.4a64.8192 64.8192 0 0 1-64.8192 64.8704h-204.8a64.8192 64.8192 0 0 1-64.8704-64.8704v-102.4a64.8704 64.8704 0 0 1 64.8704-64.8192h3.3792v-37.5808c0-26.2656 10.4448-51.4048 28.9792-69.9904z m32.4096 107.52H839.68v-37.5296a37.5296 37.5296 0 0 0-75.1104 0v37.5808z m-64.8192 61.44a3.4304 3.4304 0 0 0-3.4304 3.4304v102.4a3.4304 3.4304 0 0 0 3.4304 3.4304h204.8a3.4304 3.4304 0 0 0 3.3792-3.4304v-102.4a3.4304 3.4304 0 0 0-3.3792-3.3792h-204.8z"></path>
    
</svg>