<svg xmlns="http://www.w3.org/2000/svg" viewBox="0 0 1024 1024">
  
        <path d="M158.1056 158.1056A120.32 120.32 0 0 1 243.2 122.88h537.6a120.32 120.32 0 0 1 120.32 120.32v537.6a120.32 120.32 0 0 1-120.32 120.32H243.2a120.32 120.32 0 0 1-120.32-120.32V243.2c0-31.8976 12.6464-62.5152 35.2256-85.0944zM243.2 184.32A58.88 58.88 0 0 0 184.32 243.2v537.6a58.88 58.88 0 0 0 58.88 58.88h537.6a58.88 58.88 0 0 0 58.88-58.88V243.2a58.88 58.88 0 0 0-58.88-58.88H243.2z m448 117.76a30.72 30.72 0 0 1 30.72 30.72v358.4a30.72 30.72 0 1 1-61.44 0v-358.4a30.72 30.72 0 0 1 30.72-30.72zM512 436.48a30.72 30.72 0 0 1 30.72 30.72V691.2a30.72 30.72 0 1 1-61.44 0V467.2a30.72 30.72 0 0 1 30.72-30.72zM332.8 570.88a30.72 30.72 0 0 1 30.72 30.72v89.6a30.72 30.72 0 1 1-61.44 0v-89.6a30.72 30.72 0 0 1 30.72-30.72z"></path>
    
</svg>