<svg xmlns="http://www.w3.org/2000/svg" viewBox="0 0 1024 1024">
  
        <path d="M211.6608 283.648c-15.8208 0-30.4128 13.6192-30.4128 32.6656s14.592 32.6656 30.4128 32.6656 30.4128-13.6192 30.4128-32.6656-14.592-32.6656-30.4128-32.6656z m-85.7088 32.6656c0-47.616 37.376-87.9616 85.7088-87.9616 33.9456 0 62.464 19.9168 76.4416 48.2816h364.2368c13.9776-28.3648 42.496-48.2816 76.4416-48.2816 48.3328 0 85.7088 40.3968 85.7088 87.9616 0 47.616-37.376 87.9616-85.7088 87.9616-42.9568 0-77.2608-31.8976-84.3776-72.3456H497.8688v161.8432h154.4704c13.9776-28.3648 42.496-48.2816 76.4416-48.2816 48.3328 0 85.7088 40.448 85.7088 88.0128s-37.376 87.9616-85.7088 87.9616c-42.9568 0-77.2608-31.8976-84.3776-72.3968H497.8688v23.6032c0 81.408 18.8416 122.8288 44.8 145.2032 23.296 20.1216 57.344 29.5424 104.96 31.6928 11.264-34.304 42.752-59.8016 81.152-59.8016 48.3328 0 85.7088 40.3968 85.7088 87.9616 0 47.616-37.376 87.9616-85.7088 87.9616-38.7584 0-70.4512-25.9584-81.5104-60.7744-53.5552-2.2016-103.2704-12.9024-140.6976-45.1584-43.6736-37.6832-64-98.7648-64-187.0848V331.9296H296.0384c-7.168 40.448-41.472 72.3456-84.3776 72.3456-48.3328 0-85.7088-40.3968-85.7088-87.9616z m602.8288-32.6656c-15.8208 0-30.4128 13.6192-30.4128 32.6656s14.592 32.6656 30.4128 32.6656 30.4128-13.6192 30.4128-32.6656-14.592-32.6656-30.4128-32.6656z m0 217.1392c-15.8208 0-30.4128 13.6192-30.4128 32.7168 0 19.0464 14.592 32.6656 30.4128 32.6656s30.4128-13.6192 30.4128-32.6656c0-19.0976-14.592-32.7168-30.4128-32.7168z m0 244.224c-15.8208 0-30.4128 13.6704-30.4128 32.7168s14.592 32.6656 30.4128 32.6656 30.4128-13.6192 30.4128-32.6656-14.592-32.6656-30.4128-32.6656z"></path>
    
</svg>