<svg xmlns="http://www.w3.org/2000/svg" viewBox="0 0 1024 1024">
  
        <path d="M645.12 102.4a116.0192 116.0192 0 0 1 115.6096 105.8304l0.4608 10.24-0.1024 54.5792h54.6816c27.392 0 53.76 9.6768 74.5472 27.136l7.5264 6.8608c19.3536 19.3536 31.1808 44.8512 33.536 71.8848l0.4608 10.1888v256a116.0192 116.0192 0 0 1-105.8304 115.6096l-10.24 0.4608-54.6304-0.0512V901.12a30.7712 30.7712 0 0 1-44.5952 27.4944l-4.0448-2.56-3.7888-3.2256-161.6384-161.6896H389.1712a115.712 115.712 0 0 1-27.136-3.1744l-8.7552-2.4576-8.6016-3.1744a115.5072 115.5072 0 0 1-12.9536-6.3488l-6.1952 6.1952a30.72 30.72 0 0 1-52.0704-16.7424l-0.4096-4.9664v-139.9808H218.4704c-23.9616 0-47.104-7.3728-66.5088-20.8896l-8.0384-6.144-7.5264-6.9632a116.0704 116.0704 0 0 1-33.536-71.8336L102.4 474.4192v-256A116.0704 116.0704 0 0 1 208.2304 102.912l10.24-0.4608H645.12z m170.6496 232.0896l-54.6304-0.0512-0.0512 144.1792-0.512 7.3216a115.8656 115.8656 0 0 1-27.4944 64l-7.168 7.7824-4.096 3.584-4.6592 4.096-7.68 5.632a115.4048 115.4048 0 0 1-44.3904 17.664l-10.0864 1.3824-4.3008 0.0512-5.632 0.4608-157.952-0.1024-108.1856 108.1344 3.072 0.6656 7.1168 0.4608h170.6496a30.72 30.72 0 0 1 18.0736 5.8368l3.6864 3.1232 118.1696 118.2208v-96.4608a30.72 30.72 0 0 1 21.0432-29.184l4.7104-1.1264 5.0176-0.4096h85.2992a54.5792 54.5792 0 0 0 54.272-48.4864L870.4 645.12v-256a54.6304 54.6304 0 0 0-48.4352-54.272l-6.144-0.3584z m-116.224 112.128V375.552l0.2048-71.7824V218.4704a54.6304 54.6304 0 0 0-48.4864-54.272L645.12 163.84H218.4704a54.6304 54.6304 0 0 0-54.272 48.4352l-0.3584 6.144v256a54.6304 54.6304 0 0 0 48.4352 54.272l6.144 0.3584h85.3504a30.72 30.72 0 0 1 30.3104 25.7536l0.4096 4.9664v96.4096l112.3328-112.4864 7.8848-7.4752 2.0992-1.6384 3.9936-2.304 2.2528-1.024 4.7104-1.4336 4.4032-0.6656h171.264l6.8608-0.6144a66.56 66.56 0 0 0 18.944-5.2736l4.608-2.4576 3.9424-2.7648 3.9936-3.328 2.8672-2.7648c6.1952-6.656 10.6496-15.2576 13.0048-23.6032l1.3824-6.2464 0.4096-2.7136 0.2048-5.7344-0.0512-27.0336z"></path>
    
</svg>