<svg xmlns="http://www.w3.org/2000/svg" viewBox="0 0 1024 1024">
  
        <path d="M108.4928 185.4464a127.1296 127.1296 0 0 1 84.8896-31.8976h525.0048a30.72 30.72 0 1 1 0 61.44H193.3824c-16.9472 0-32.6656 6.144-43.776 16.128a47.3088 47.3088 0 0 0-16.5376 35.072V757.76c0 12.4928 5.4784 25.1904 16.5376 35.1232 11.1104 9.984 26.8288 16.0768 43.776 16.0768h637.2352c16.9984 0 32.7168-6.0928 43.8272-16.0768a47.3088 47.3088 0 0 0 16.4864-35.1232V359.0144a30.72 30.72 0 1 1 61.44 0V757.76c0 30.976-13.7216 59.9552-36.864 80.7936a127.0784 127.0784 0 0 1-84.8896 31.8464H193.3824a127.1296 127.1296 0 0 1-84.8896-31.8464l20.5312-22.8352-20.5312 22.8352a108.6976 108.6976 0 0 1-36.864-80.7936V266.24c0-31.0272 13.7216-59.9552 36.864-80.7936z"></path>
        <path d="M705.7408 622.848v-221.696h151.9616v45.312h-95.5904v43.776h89.9072v42.4448h-89.9072v44.8512h95.5904v45.312h-151.9616zM531.456 622.848v-221.696h151.9616v45.312H587.776v43.776h89.9072v42.4448h-89.856v44.8512h95.5392v45.312H531.456zM332.5952 622.848v-221.696h96c53.6064 0 83.9168 26.624 83.9168 73.5744v0.3072c0 28.416-14.7456 52.992-37.8368 62.976l44.4416 84.8384H455.7824l-38.0928-76.3392h-28.672v76.288H332.544z m56.3712-117.248h33.3312c19.968 0 32.768-11.9808 32.768-30.72V474.624c0-18.5856-13.2608-30.8736-33.0752-30.8736h-33.024v61.952zM166.2976 622.848v-221.696h150.8352v45.312H222.72v50.5344h85.8624v43.2128H222.72v82.6368H166.2976z"></path>
        <path d="M972.8 179.2a76.8 76.8 0 1 1-153.6 0 76.8 76.8 0 0 1 153.6 0z"></path>
    
</svg>