<svg xmlns="http://www.w3.org/2000/svg" viewBox="0 0 1024 1024">
  
        <path d="M415.7952 182.0672a42.8032 42.8032 0 0 1-63.8976 26.4704c-93.3888-56.832-200.192 49.9712-143.36 143.36a42.8544 42.8544 0 0 1-26.4704 63.8976c-106.24 25.7536-106.24 176.896 0 202.6496a42.752 42.752 0 0 1 26.4704 63.8976c-56.832 93.3888 49.9712 200.192 143.36 143.36a42.8032 42.8032 0 0 1 63.8976 26.4704c25.7536 106.24 176.8448 106.24 202.6496 0a42.752 42.752 0 0 1 63.8976-26.4704c93.3888 56.832 200.192-49.9712 143.36-143.36a42.8032 42.8032 0 0 1 26.4704-63.8976c106.24-25.8048 106.24-176.896 0-202.6496a42.8544 42.8544 0 0 1-26.4704-63.8976c56.832-93.3888-49.9712-200.192-143.36-143.36a42.8032 42.8032 0 0 1-63.8976-26.4704c-25.088-103.2704-168.6016-106.1376-200.192-8.6016l-2.4576 8.6016z m142.9504 14.4896a104.2432 104.2432 0 0 0 146.9952 69.1712l8.6016-4.7104c36.864-22.4256 78.7456 17.152 61.3888 54.272l-2.5088 4.608a104.1408 104.1408 0 0 0 55.04 152.832l9.4208 2.7648c43.6224 10.5984 43.6224 72.6528 0 83.2512a104.3456 104.3456 0 0 0-69.1712 146.9952l4.7104 8.6016c22.4256 36.864-17.152 78.7456-54.272 61.3888l-4.608-2.5088a104.192 104.192 0 0 0-152.832 55.04l-2.7648 9.4208c-10.5984 43.6224-72.704 43.6224-83.2512 0a104.2944 104.2944 0 0 0-146.9952-69.1712l-8.6016 4.7104c-36.864 22.4256-78.7456-17.152-61.44-54.272l2.56-4.608a104.2944 104.2944 0 0 0-55.04-152.832l-9.4208-2.7648c-43.6224-10.5984-43.6224-72.704 0-83.2512A104.2432 104.2432 0 0 0 265.728 328.4992l-4.7104-8.6016c-22.4256-36.864 17.152-78.7456 54.272-61.44l4.608 2.56c58.0608 35.3792 133.12 6.5024 153.4976-56.9856l2.0992-7.4752c10.5984-43.6224 72.6528-43.6224 83.2512 0z"></path>
        <path d="M517.12 358.4a158.72 158.72 0 1 0 0 317.44 158.72 158.72 0 0 0 0-317.44z m0 61.44a97.28 97.28 0 1 1 0 194.56 97.28 97.28 0 0 1 0-194.56z"></path>
    
</svg>