<svg xmlns="http://www.w3.org/2000/svg" viewBox="0 0 1024 1024">
  
        <path d="M580.2496 122.88a116.0192 116.0192 0 0 1 115.6096 105.8304l0.4608 10.24v54.5792h54.6304c27.3408 0 53.7088 9.6768 74.496 27.136l7.5264 6.8608c19.3536 19.3536 31.1808 44.8512 33.536 71.8848l0.512 10.1888v341.3504a116.0704 116.0704 0 0 1-105.8816 115.5584l-10.24 0.512H409.6a116.0704 116.0704 0 0 1-115.6096-105.8816l-0.4608-10.24V696.32H238.9504a116.0192 116.0192 0 0 1-115.6096-105.7792l-0.512-10.24V238.9504a116.0704 116.0704 0 0 1 105.8816-115.6096l10.24-0.512h341.2992z m-224.768 279.2448L354.9696 409.6v341.2992a54.6304 54.6304 0 0 0 48.4864 54.272l6.144 0.3072h341.3504a54.6304 54.6304 0 0 0 54.272-48.4352l0.3072-6.144V409.6a54.6304 54.6304 0 0 0-48.4352-54.272l-6.144-0.3584-332.9024-0.0512-4.608 0.1536c-4.096 0.1024-7.5264 0.3072-10.24 0.5632l-5.3248 0.6656-4.1472 1.024-3.6864 1.2288-5.9392 2.7648-1.0752 0.6656c-2.2528 1.3824-4.7104 3.072-7.1168 4.9664l-4.864 3.9424-3.6864 4.096a54.5792 54.5792 0 0 0-11.8784 27.136z m224.768-217.8048H238.9504a54.6304 54.6304 0 0 0-54.272 48.4352l-0.3584 6.144v341.3504a54.6304 54.6304 0 0 0 48.4352 54.272l6.144 0.3584 54.3744-0.0512 0.256-214.8864-0.1536-10.24c0.512-27.9552 8.5504-52.224 24.8832-72.192l6.5024-7.3728 3.9424-3.6864 7.3216-6.656 3.072-2.3552 7.5264-5.2736 12.8-7.2704c4.864-2.4064 9.728-4.352 14.848-5.9392l12.5952-3.1744c4.9664-1.024 10.0352-1.6384 15.0528-1.9968L409.6 293.5296h225.28V238.9504c0-9.9328-2.6624-19.6096-7.68-28.0064l-4.1472-6.0416-4.096-4.608a54.5792 54.5792 0 0 0-32.4608-15.616l-6.144-0.3584z"></path>
    
</svg>