<svg xmlns="http://www.w3.org/2000/svg" viewBox="0 0 1024 1024">
  
        <path d="M632.8832 490.2912l-166.4 54.3232-144.7424 63.8976-40.4992 10.752a1170.944 1170.944 0 0 1-66.7648 58.2144 253.696 253.696 0 0 0-32.9728 32.6656c-11.4688 14.336-20.48 29.5936-24.4224 41.2672-6.912 21.1456-3.4816 42.496 9.8304 62.2592 17.1008 25.1392 51.2 50.7904 90.9312 68.3008 20.224 8.9088 54.3232 20.3776 79.9744 26.7776 42.6496 10.8032 125.184 22.528 170.5472 24.2688 9.216 0.4096 21.504 0.4096 22.016 0 1.024-0.6144 8.0384-14.08 16.2304-30.8224 27.9552-56.9344 48.0256-110.3872 58.9824-156.0576 6.5536-27.648 11.7248-64.512 15.104-108.1856 0.8704-12.1856 1.28-53.0432 0.512-66.9184a469.2992 469.2992 0 0 0-6.2976-58.9824c-0.512-2.6112-0.6144-5.0176-0.3584-5.12 0.512-0.4096 1.9968-0.9216 22.528-6.8096l-4.1984-9.8304z m-37.9904 22.272c1.536 0 5.5296 38.6048 6.5536 62.976 0.256 5.1712 0.1536 8.6016-0.1024 8.6016-1.024 0-21.248-11.9808-35.7376-20.992a954.2144 954.2144 0 0 1-40.2432-26.8288c-1.28-0.8704-1.1264-1.024 9.216-4.5056a1723.0848 1723.0848 0 0 1 60.3136-19.2512z m-84.736 27.904c1.1264 0 3.9936 1.6384 10.9056 5.9392 25.9072 16.2304 61.1328 35.84 76.288 42.3936 4.608 1.9968 5.12 1.2288-5.5808 8.5504-22.8864 15.5648-51.456 30.9248-86.4256 46.3872-6.144 2.7648-11.264 4.9152-11.4176 4.9152a32.9216 32.9216 0 0 1 1.536-6.912c8.3968-31.3344 13.1584-62.976 13.4144-88.4224 0.1536-12.5952 0.1536-12.5952 1.28-12.9536-0.256 0.1024-0.1536 0.1024 0 0.1024z m-17.5104 6.656c0.768 0.768 0.256 28.9792-0.7168 36.608a320.0512 320.0512 0 0 1-14.4896 63.5392c-0.512 0.6144-17.7152-16.2304-23.3984-22.784a170.1376 170.1376 0 0 1-23.1424-33.6896 106.2912 106.2912 0 0 1-7.0144-17.1008 1492.992 1492.992 0 0 1 68.7616-26.5216z m-82.2272 32.3584c0.1024 0 0.256 0 0.3584 0.1024a169.984 169.984 0 0 0 22.784 41.8816 212.736 212.736 0 0 0 35.1744 36.608c0.768 0.768 1.024 0.6656-19.456 8.448-23.808 9.0624-49.664 18.0736-79.36 27.648l-21.248 6.912c-1.1776 0.4096-0.768-0.256 2.5088-5.376 14.6944-23.04 37.0688-68.1984 49.664-100.1472 2.1504-5.5296 4.3008-11.0592 4.608-12.288 0.512-1.792 1.1776-2.4064 2.816-3.2768 0.8704-0.256 1.7408-0.512 2.1504-0.512z m-25.1904 10.4448c0.4096 0.256-6.0416 13.7216-12.288 26.0096a975.2576 975.2576 0 0 1-49.664 85.504c-0.6656 0.9216-0.9216 0.6656-2.9184-3.2256a115.5072 115.5072 0 0 1-9.728-29.184 117.3504 117.3504 0 0 1 0.6656-37.4784c1.6384-7.7824 1.536-7.68 5.2736-9.5744 16.128-8.192 68.1984-32.5632 68.6592-32.0512z m216.9856 8.8064v5.2736a684.4416 684.4416 0 0 1-8.96 103.6288l-7.8848-2.2528a324.608 324.608 0 0 1-57.856-24.7808c-12.2368-6.656-29.952-17.6128-29.44-18.1248l11.5712-6.144c24.6272-12.8 48.2816-26.6752 68.8128-40.3968 7.68-5.12 19.2-13.4144 21.76-15.7184l1.9968-1.536z m-311.9104 37.2224c0.512 0 0.3584 1.024-0.4096 5.5296-0.512 3.2768-1.1264 9.3184-1.3824 13.4656-1.024 18.3296 2.048 31.9488 11.1104 50.5344 2.5088 5.1712 4.5056 9.4208 4.352 9.5744-0.8704 0.768-84.1216 25.1392-110.2848 32.3072l-15.104 4.1472c-0.8704 0.256-1.024 0.1536-0.6144-1.9968 2.8672-18.4832 16.9984-42.6496 36.608-62.976 13.056-13.6192 23.552-21.504 41.3696-31.744 12.8-7.2704 32.5632-18.2272 34.0992-18.7392 0-0.1024 0.1024-0.1024 0.256-0.1024z m196.1984 35.072a50.7392 50.7392 0 0 1 6.8096 3.6864 378.88 378.88 0 0 0 96.3072 37.4272l2.9184 0.6656-4.0448 2.2528c-16.7424 9.3184-71.68 32.2048-127.8976 53.248-8.192 2.9696-16.2304 5.9904-17.7664 6.656a8.96 8.96 0 0 1-2.8672 0.8704c0-0.1536 2.2528-4.5568 5.12-9.984 15.7696-29.3888 31.5904-65.2288 39.6288-90.112 1.024-2.4576 1.6384-4.608 1.792-4.7104z m-19.968 6.5536a35.9424 35.9424 0 0 1-2.1504 5.7856 796.4672 796.4672 0 0 1-43.6736 87.9104c-4.608 8.2944-8.5504 14.9504-8.704 14.9504a229.888 229.888 0 0 1-8.3968-5.0176c-26.624-16.384-50.3296-36.4544-65.792-55.9616l-2.2528-2.7648 11.4688-3.1232a821.76 821.76 0 0 0 110.3872-38.144c4.9152-2.048 8.96-3.6352 9.0624-3.6352z m124.2112 43.4176c0.1536 2.8672-6.2976 28.7744-11.5712 47.5136a1364.6848 1364.6848 0 0 1-20.8384 67.2768 525.824 525.824 0 0 1-103.936-29.184 291.1232 291.1232 0 0 1-22.1184-9.7792 146.688 146.688 0 0 1 16.896-7.936c57.1904-25.0368 116.5824-53.4528 136.96-65.6384a16.384 16.384 0 0 1 4.608-2.2528z m-286.8736 9.7792a1536 1536 0 0 1-38.0928 54.5792l-20.2752 28.5696c-3.3792 4.7616-8.5504 12.288-11.4176 16.8448l-5.3248 8.192-5.632-4.8128a209.408 209.408 0 0 1-23.3984-23.8592 103.168 103.168 0 0 1-20.992-40.6528c-1.3824-6.0416-1.3824-9.0624-0.1536-9.4208 1.8944-0.512 35.4816-8.448 66.9184-15.7184a5564.416 5564.416 0 0 0 58.368-13.7216z m16.0768 6.144l4.0448 4.5568c18.1248 20.224 36.608 35.2256 58.9824 48.2816a32.9728 32.9728 0 0 1 6.8096 4.4032c-0.8704 0.6656-77.7216 27.9552-113.3056 40.2432-20.0192 7.0656-36.5056 12.6976-36.608 12.6976a22.016 22.016 0 0 1-2.56-1.6384l-2.2528-1.6384 3.6864-5.2736c11.776-17.1008 26.624-35.84 58.9824-74.8032l22.2208-26.8288z m100.352 71.8336c0.1536-0.1024 5.6832 1.8944 12.4928 4.4032 16.384 6.144 29.2864 10.0864 46.6432 14.4896 21.4016 5.376 52.3264 10.7008 70.5536 12.1856 2.7648 0.256 4.3008 0.512 3.7888 0.8704-0.8704 0.512-19.3536 6.656-32.9216 10.9568a9008.3328 9008.3328 0 0 1-160.512 47.1552c-1.28 0.256-5.4272-0.8704-5.4272-1.3824 0-0.256 3.072-4.1472 6.656-8.448 18.1248-21.6064 36.1472-45.7728 51.0976-68.608 4.1472-6.3488 7.68-11.4688 7.68-11.6224z m-22.1184 0.6144c0.1536 0.1536-8.8064 14.4896-24.3712 39.1168l-16.7424 26.4192-8.3968 13.824-3.6864 6.4512-1.8944-0.512a1046.016 1046.016 0 0 1-44.7488-15.872 312.064 312.064 0 0 1-29.2864-13.4144c-10.0864-5.4272-22.6816-13.4656-21.6576-13.7216 0.256-0.1536 17.4592-4.8128 38.2464-10.4448a3090.688 3090.688 0 0 0 105.6256-29.952 52.224 52.224 0 0 1 6.912-1.8944z m156.6208 36.7616h0.1024c0.512 1.2288-19.8656 57.856-27.2896 75.7248-1.6384 3.9936-2.2528 5.0176-3.1232 4.864a2295.4496 2295.4496 0 0 1-146.7904-23.9104l-3.0208-0.6144 18.7392-4.2496c40.2432-9.0624 59.5968-13.9776 79.2576-19.968 24.7808-7.5776 49.3056-16.9984 74.0864-28.5696 3.8912-1.792 7.168-3.1744 8.0384-3.2768zM461.3632 102.4c-2.7648-0.3584-47.4112 15.7184-76.2368 27.4432-38.8608 15.872-69.0176 30.9248-87.6544 44.032-6.912 4.864-15.5648 13.568-16.9472 16.9472a11.7248 11.7248 0 0 0-0.768 4.3008l16.896 15.9744 40.0896 12.8 95.4368 17.1008 109.1584 18.7392 1.1776-9.4208-1.024-0.1024-14.336-2.304-2.9184-5.12a972.288 972.288 0 0 1-40.7552-80.5376 416 416 0 0 1-18.3296-50.688c-2.1504-8.5504-2.4064-9.0112-3.7888-9.1648z m-2.048 6.4h0.1536c0.1536 0.1536 0.6656 3.6864 1.1264 7.8336 2.1504 17.6128 6.0416 34.56 12.2368 52.9408 4.608 13.824 4.608 13.056-0.768 11.4176-12.8-3.4816-70.2976-13.4144-111.9232-19.2a166.1952 166.1952 0 0 1-12.3392-1.8944c-0.512-0.512 30.0544-16.4864 43.52-22.784 17.2032-7.936 64.512-27.648 68.0448-28.3136zM338.176 165.1712l4.864 1.6384c26.6752 9.0624 93.696 21.8624 130.7136 24.8832l7.7824 0.768c0.1536 0.1024-3.3792 2.048-7.936 4.1472-17.8176 8.9088-37.4784 19.8656-51.0464 28.3136a52.224 52.224 0 0 1-8.192 4.5056c-0.512 0-3.1232-0.512-5.888-0.8704l-5.0176-0.768-12.5952-12.288c-22.1184-21.504-39.4752-38.144-46.1312-44.4416l-6.5536-5.888z m-5.0688 3.8912l17.7664 22.1184c9.6768 12.2368 19.456 24.1664 21.6064 26.8288 2.1504 2.6112 3.8912 4.7616 3.7888 4.9152a551.2192 551.2192 0 0 1-66.7648-14.848l-6.9632-2.304v-1.7408c0.1536-8.448 10.8544-20.992 28.9792-33.792l1.5872-1.1776z m150.6816 30.208c0.512 0 1.1264 1.1264 2.6624 4.5056 4.2496 9.4208 17.6128 34.816 20.8896 39.7312 1.024 1.6384 2.7648 1.792-15.0016-1.1264-42.5984-6.912-56.32-9.216-56.32-9.4208 0-0.1024 1.2288-1.024 2.8672-1.8944a245.76 245.76 0 0 0 38.4-26.5216l5.9904-5.0176c0.1536-0.256 0.4096-0.4096 0.512-0.256z" fill="#D3D5D7"></path>
        <path d="M281.3952 189.0816s-2.7648 4.4032-0.1536 10.9568c1.6384 4.0448 6.4512 8.9088 11.8272 13.9776 0 0 55.9616 54.5792 62.7712 62.3616 30.9248 35.7376 44.3904 70.9632 45.6704 119.5008 0.7168 31.232-5.1712 58.624-19.8656 90.4192-26.1632 57.088-81.408 120.1152-166.5536 190.0544l12.4416-4.1472c8.0896-6.0416 18.9952-12.4416 44.6464-26.5216 59.2384-32.4608 125.952-62.2592 207.6672-92.9792 117.76-44.288 311.296-96.1024 421.4784-112.9472l11.4688-1.7408-1.792-2.7648a388.096 388.096 0 0 0-25.2928-35.584 301.9776 301.9776 0 0 0-89.2928-74.3424c-49.3056-27.5456-113.0496-49.0496-193.792-65.024-15.2576-3.072-48.6912-8.8064-75.8784-12.9536a7725.056 7725.056 0 0 1-135.8336-22.1696c-14.6944-2.5088-36.7104-6.2464-51.3024-9.4208a326.0928 326.0928 0 0 1-33.28-8.9088c-9.1136-3.5328-22.1696-7.0656-24.9344-17.7664z m32.4608 31.488c0.1024-0.1536 2.0992 0.6144 4.7616 1.4848 4.7616 1.6384 10.9568 3.5328 18.2272 5.5296 5.5296 1.536 11.0592 2.9696 16.5888 4.4032 7.5776 1.8944 13.824 3.6352 13.9776 3.6352 0.8704 0.8704 13.568 41.472 17.8688 57.088 1.6384 5.9392 2.8672 10.9568 2.7648 10.9568a25.3952 25.3952 0 0 1-3.1744-4.9152C370.176 272.896 346.9312 246.5792 320 225.4336a53.6064 53.6064 0 0 1-6.144-4.864z m61.8496 17.1008c0.6144 0 3.4304 0.3584 6.8096 1.1264 21.3504 4.7616 59.7504 12.0832 84.2752 16.2304a30.7712 30.7712 0 0 1 7.424 1.6384c0 0.2048-1.536 1.1264-3.4304 2.0992a456.7552 456.7552 0 0 0-26.4192 15.872 241.152 241.152 0 0 0-35.584 28.416l-6.7584 6.656s-0.768-2.1504-1.3824-4.7616a407.8592 407.8592 0 0 0-22.528-61.6448 53.76 53.76 0 0 1-2.56-5.7856c0 0.256 0 0.1536 0.1536 0.1536z m108.9536 20.736c0.7168 0.256 1.9968 4.5056 4.5056 13.9776a205.9776 205.9776 0 0 1 5.2736 68.4032l-0.3584 1.28-6.5536-2.1504c-13.4656-4.3008-35.328-10.752-54.0672-15.9744a214.8352 214.8352 0 0 1-19.4048-5.7856c0-0.768 15.616-16.384 22.272-22.272 12.6976-11.2128 47.1552-37.888 48.3328-37.4784z m8.6528 1.2288a2096.128 2096.128 0 0 1 75.5712 13.1072c17.5104 3.3792 42.9056 8.704 44.3904 9.3184 0.768 0.256-1.8432 1.7408-10.24 5.5296-33.28 14.9504-57.856 28.416-82.432 44.7488a394.752 394.752 0 0 1-11.9296 7.8336c-0.1536 0-0.256-3.6864-0.256-8.0896 0-23.8592-4.8128-48.0256-13.6192-68.4032a18.944 18.944 0 0 1-1.4848-4.0448z m133.6832 26.4192c0.4096 0.4096-1.2288 10.5984-2.7648 16.64-4.5056 18.7392-16.6912 46.5408-31.6928 72.704a82.432 82.432 0 0 1-5.2736 8.5504 53.4528 53.4528 0 0 1-7.5264-4.096 409.856 409.856 0 0 0-49.3056-24.064c-5.0176-2.2016-9.472-3.9424-9.5744-4.1984-0.8704-0.768 39.6288-27.5456 60.9792-40.3456 16.9984-10.3424 44.6464-25.6512 45.1584-25.1904z m9.5744 1.536a742.3488 742.3488 0 0 1 121.6512 41.1136l9.1648 4.1472-6.4512 1.536c-54.0672 12.4416-100.352 26.7776-144.9984 44.9024-3.6352 1.536-6.912 2.7648-7.168 2.7648a32.9216 32.9216 0 0 1 2.6624-6.4512c13.4144-28.5184 22.1184-58.368 24.2688-83.7632 0.1024-2.3552 0.512-4.2496 0.8704-4.2496zM408.6784 339.9168c0.3584-0.4096 17.8688 3.7376 27.2896 6.4 14.336 4.0448 44.7488 14.2336 44.7488 14.9504 0 0.1536-3.3792 3.072-7.424 6.5536-16.4352 13.7216-32.256 28.16-51.3024 46.5408-5.632 5.4272-10.4448 9.8304-10.7008 9.8304-0.256 0-0.3584-0.768-0.256-1.792 2.9184-21.0944 2.304-48.2816-1.7408-75.8272-0.3584-3.5328-0.768-6.5536-0.6144-6.656z m367.4112 0.3584c0.2048 0.256-8.0896 13.312-13.312 20.736-7.6288 10.8544-18.688 25.1904-43.7248 56.6272-13.1584 16.5888-28.0064 35.328-32.9216 41.6256-5.0176 6.2976-9.216 11.5712-9.3184 11.5712a41.7792 41.7792 0 0 1-3.5328-5.0176A260.2496 260.2496 0 0 0 622.336 409.6a288.768 288.768 0 0 0-9.2672-7.5776 14.08 14.08 0 0 1-2.56-2.1504c0-0.3584 21.4016-9.5232 37.632-16.0768a1289.0112 1289.0112 0 0 1 96.256-34.304c15.1552-4.8128 31.3856-9.472 31.6928-9.216z m9.6768 2.56a29.184 29.184 0 0 1 7.168 3.4816 426.8032 426.8032 0 0 1 107.008 86.8864l-12.5952 1.024c-52.9408 4.0448-120.7296 15.2064-185.856 30.9248-4.4544 1.024-8.2944 1.8944-8.6016 1.8944-0.2048 0 4.7104-4.9152 10.8544-10.8032 38.2464-36.864 55.7056-60.1088 76.288-101.632 2.9184-6.144 5.4784-11.4176 5.7344-11.776-0.1536 0-0.1536 0 0 0z m-280.1152 28.672c1.7408 0.3584 18.1248 8.0384 30.4128 14.1824 11.3152 5.632 28.3136 14.6944 29.184 15.4624a177.152 177.152 0 0 1-13.312 6.912c-23.6544 11.8272-43.9296 23.04-65.024 35.84a439.296 439.296 0 0 1-11.2128 6.656c-0.512 0-0.3584-0.512 3.072-6.656a262.656 262.656 0 0 0 25.4976-69.2736c0.512-1.8944 1.024-3.1744 1.3824-3.1744z m-16.384 2.9696c0.4096 0.4096-3.8912 15.872-6.5024 24.2688-5.1712 15.9744-13.824 35.9936-22.272 51.0976l-6.656 11.5712-3.1744 5.0176-7.0144-6.8096c-8.192-7.8848-14.848-12.8-23.3984-17.2032a33.5872 33.5872 0 0 1-6.0416-3.5328c0-1.024 21.504-20.48 37.9904-34.56 11.776-10.24 36.7104-30.208 37.0688-29.8496z m99.9936 41.1648l6.144 3.9936c14.1312 9.216 30.72 21.4016 43.4176 32.1024 7.168 5.888 20.992 18.3296 23.808 21.3504l1.4848 1.6384-10.1888 2.9184a1847.808 1847.808 0 0 0-154.112 49.3056 180.8384 180.8384 0 0 1-11.008 3.8912c-0.768 0-1.3824 0.6144 11.5712-11.3152a552.2944 552.2944 0 0 0 84.48-97.1264l4.4032-6.7584z m-26.2656 6.5024c0.256 0.256-16.9984 24.576-27.2896 38.2464-12.288 16.384-34.2016 43.776-49.3056 61.6448a385.5872 385.5872 0 0 1-11.9296 13.7216c-0.4096 0.1024-0.512-1.792-0.512-4.6592a105.472 105.472 0 0 0-10.752-45.312c-2.8672-5.7856-3.328-7.168-2.7136-7.7824 2.3552-2.1504 38.9632-23.04 62.1056-35.4816a798.72 798.72 0 0 1 40.3968-20.3776z m-158.976 39.0144a138.0864 138.0864 0 0 1 28.16 17.8688 37.376 37.376 0 0 1-7.2704 6.0416c-11.9808 8.5504-30.0544 22.2208-40.6528 30.6688-11.0592 8.8064-11.4176 9.0624-10.1888 7.168 8.2944-12.6976 12.4416-19.8656 16.896-29.0304a233.984 233.984 0 0 0 10.5472-26.3168 21.248 21.248 0 0 1 2.5088-6.4z m42.3936 33.1776c0.6144-0.1024 1.3824 1.024 4.7616 6.0416 7.168 10.752 12.6976 25.088 14.08 36.608l0.256 2.56-17.2032 6.656c-30.8224 11.9296-59.2384 23.7568-78.4896 32.5632a1430.3744 1430.3744 0 0 0-32.256 15.4624c0-0.1536 3.9424-3.072 8.704-6.5536 37.632-27.2896 70.1952-57.2416 94.6176-87.1424 2.6112-3.1744 5.0176-6.0416 5.2736-6.144h0.256z m-19.5072 4.8128c0.512 0.512-13.824 16.6912-23.6544 26.624A417.1264 417.1264 0 0 1 325.1712 588.8l-7.5776 4.8128c-0.8704 0.512 0.256-0.768 13.312-15.0016a342.528 342.528 0 0 0 21.8112-25.7536 42.496 42.496 0 0 1 12.544-11.9808c18.4832-13.312 61.1328-42.24 61.6448-41.728z" fill="#D62D25"></path>
    
</svg>