<svg xmlns="http://www.w3.org/2000/svg" viewBox="0 0 1024 1024">
  
        <path d="M512 184.32a327.68 327.68 0 1 0 0 655.36 327.68 327.68 0 0 0 0-655.36zM236.8512 236.8512a389.12 389.12 0 1 1 550.2976 550.2976A389.12 389.12 0 0 1 236.8512 236.8512zM512 321.9968a30.72 30.72 0 0 1 30.72 30.72v159.232a30.72 30.72 0 1 1-61.44 0V352.768a30.72 30.72 0 0 1 30.72-30.72z m-30.72 349.2864a30.72 30.72 0 0 1 30.72-30.72h0.4096a30.72 30.72 0 1 1 0 61.44H512a30.72 30.72 0 0 1-30.72-30.72z"></path>
    
</svg>