<svg xmlns="http://www.w3.org/2000/svg" viewBox="0 0 1024 1024">
  
        <path d="M482.742857 290.084571v351.963429a29.257143 29.257143 0 1 0 58.514286 0V290.084571l112.64 112.591239a29.257143 29.257143 0 0 0 41.350095-41.398858l-162.523428-162.523428a29.257143 29.257143 0 0 0-41.398858 0L328.801524 361.276952a29.257143 29.257143 0 0 0 41.350095 41.398858l112.64-112.64z m-266.581333 384.438858a29.257143 29.257143 0 0 0-58.514286 0v40.667428a151.161905 151.161905 0 0 0 151.161905 151.161905h406.381714a151.161905 151.161905 0 0 0 151.161905-151.161905v-40.667428a29.257143 29.257143 0 0 0-58.514286 0v40.667428a92.647619 92.647619 0 0 1-92.647619 92.647619H308.809143a92.647619 92.647619 0 0 1-92.647619-92.647619v-40.667428z"></path>
    
</svg>