<svg xmlns="http://www.w3.org/2000/svg" viewBox="0 0 1024 1024">
  
        <path d="M781.2096 212.992a54.6304 54.6304 0 0 0-59.9552 12.5952l-0.4096 0.4096L414.72 532.1216V609.28h77.2096l306.5344-306.5344a54.5792 54.5792 0 0 0-17.2544-89.8048z m-21.7088-65.536a116.0704 116.0704 0 0 1 81.8688 199.3728l-314.9824 314.9312a30.72 30.72 0 0 1-21.7088 9.0112H384a30.72 30.72 0 0 1-30.72-30.72v-120.6784a30.72 30.72 0 0 1 9.0112-21.7088l314.9312-314.9824a116.0704 116.0704 0 0 1 82.2784-35.2256zM173.9264 216.6272A116.0704 116.0704 0 0 1 256 182.6816h213.3504a30.72 30.72 0 0 1 0 61.44H256a54.6304 54.6304 0 0 0-54.6304 54.5792v469.3504A54.6304 54.6304 0 0 0 256 822.6304h469.3504a54.6304 54.6304 0 0 0 54.5792-54.5792v-213.3504a30.72 30.72 0 1 1 61.44 0v213.3504a116.0704 116.0704 0 0 1-116.0192 116.0192H256a116.0704 116.0704 0 0 1-116.0704-116.0192V298.7008c0-30.7712 12.288-60.3136 33.9968-82.0736z"></path>
    
</svg>