<svg xmlns="http://www.w3.org/2000/svg" viewBox="0 0 1075 1024">
  
        <path d="M179.2 204.8h307.2l102.4 102.4h307.2v320.3584l-141.4144-81.7664-93.7472 114.8416L767.9488 819.2H179.2V204.8z" fill="#2B2111"></path>
        <path d="M179.7632 209.8688c20.4288-22.528 48.7936-35.7888 79.0528-35.7888h238.9504a30.72 30.72 0 0 1 22.7328 10.0864l70.5024 77.6704h225.3312c30.3104 0 58.6752 13.312 79.104 35.84 20.3264 22.3744 31.232 52.1728 31.232 82.688V435.2a30.72 30.72 0 1 1-61.44 0V380.3648c0-16.0768-5.7856-30.9248-15.3088-41.472a45.4144 45.4144 0 0 0-33.5872-15.616h-238.8992a30.72 30.72 0 0 1-22.784-10.0864L484.1472 235.52h-225.28a45.4144 45.4144 0 0 0-33.5872 15.616c-9.5744 10.5472-15.36 25.3952-15.36 41.472v438.784c0 16.0768 5.7856 30.9248 15.36 41.472a45.4144 45.4144 0 0 0 33.536 15.616h163.7376a30.72 30.72 0 0 1 0 61.44H258.816c-30.2592 0-58.624-13.312-79.0528-35.7888a123.2384 123.2384 0 0 1-31.2832-82.688V292.5568c0-30.5152 10.9568-60.3136 31.2832-82.688z m583.168 234.8032a30.72 30.72 0 0 1 28.9792 20.48l44.8512 126.976 110.3872 39.168a30.72 30.72 0 0 1 0 57.856l-110.3872 39.168-44.8512 126.976a30.72 30.72 0 0 1-57.9072 0l-44.8512-126.976-110.3872-39.1168a30.72 30.72 0 0 1 0-57.9072l110.3872-39.1168 44.8512-126.976a30.72 30.72 0 0 1 28.9792-20.48z m0 123.0336l-20.6848 58.7264a30.72 30.72 0 0 1-18.7392 18.7392l-42.496 15.0528 42.496 15.0528a30.72 30.72 0 0 1 18.7392 18.7392l20.736 58.7264 20.736-58.7264a30.72 30.72 0 0 1 18.688-18.7392l42.496-15.0528-42.496-15.0528a30.72 30.72 0 0 1-18.688-18.7392l-20.736-58.7264zM610.816 732.16a30.72 30.72 0 0 1 30.72 30.72v10.3424h12.8a30.72 30.72 0 1 1 0 61.44h-12.8v10.3424a30.72 30.72 0 1 1-61.44 0v-10.3424h-12.8a30.72 30.72 0 0 1 0-61.44h12.8V762.88a30.72 30.72 0 0 1 30.72-30.72z" fill="#D89614"></path>
    
</svg>