<svg xmlns="http://www.w3.org/2000/svg" viewBox="0 0 1024 1024">
  
        <path d="M468.1216 133.12c-15.4112 0-30.0032 5.9392-40.6528 16.2816-10.5984 10.3424-16.384 24.1152-16.384 38.3488 0 14.1824 5.7856 27.9552 16.384 38.2976 10.6496 10.3424 25.2416 16.2816 40.6528 16.2816h87.7568c15.36 0 30.0032-5.9392 40.6528-16.2816 10.5984-10.3424 16.384-24.1152 16.384-38.2976 0-14.2336-5.7856-28.0064-16.384-38.3488a58.368 58.368 0 0 0-40.6528-16.2816H468.1216z m-83.456-27.7504a119.808 119.808 0 0 1 83.456-33.6896h87.7568a119.808 119.808 0 0 1 83.456 33.6896c14.848 14.336 25.344 32.2048 30.8224 51.6608h61.2864a119.808 119.808 0 0 1 83.456 33.6896c22.3232 21.6576 35.0208 51.3024 35.0208 82.3296v512c0 31.0784-12.6976 60.672-35.0208 82.3808a119.808 119.808 0 0 1-83.456 33.6896H292.5568a119.808 119.808 0 0 1-83.456-33.6896 114.8928 114.8928 0 0 1-35.0208-82.3808v-512c0-31.0272 12.6976-60.672 35.0208-82.3296a119.808 119.808 0 0 1 83.456-33.6896h61.2864c5.4272-19.456 16.0256-37.3248 30.7712-51.712zM353.792 218.4704H292.5568c-15.36 0-30.0032 5.9392-40.6528 16.2816-10.5984 10.2912-16.384 24.064-16.384 38.2976v512c0 14.2336 5.7856 28.0064 16.384 38.2976 10.6496 10.3936 25.2416 16.3328 40.6528 16.3328h438.8864c15.36 0 30.0032-5.9392 40.6528-16.3328 10.5984-10.24 16.384-24.064 16.384-38.2976v-512c0-14.1824-5.7856-28.0064-16.384-38.2976a58.368 58.368 0 0 0-40.6528-16.2816h-61.2864c-5.4784 19.456-16.0256 37.2736-30.7712 51.6096a119.808 119.808 0 0 1-83.5072 33.6896H468.1216a119.808 119.808 0 0 1-83.456-33.6896 115.5584 115.5584 0 0 1-30.8224-51.6096zM349.5936 486.4a30.72 30.72 0 0 1 30.72-30.72h0.512a30.72 30.72 0 0 1 0 61.44h-0.512a30.72 30.72 0 0 1-30.72-30.72z m131.6864 0a30.72 30.72 0 0 1 30.72-30.72h131.6352a30.72 30.72 0 1 1 0 61.44H512a30.72 30.72 0 0 1-30.72-30.72z m-131.6864 170.6496a30.72 30.72 0 0 1 30.72-30.72h0.512a30.72 30.72 0 0 1 0 61.44h-0.512a30.72 30.72 0 0 1-30.72-30.72z m131.6864 0a30.72 30.72 0 0 1 30.72-30.72h131.6352a30.72 30.72 0 0 1 0 61.44H512a30.72 30.72 0 0 1-30.72-30.72z"></path>
    
</svg>