<svg xmlns="http://www.w3.org/2000/svg" viewBox="0 0 1024 1024">
  
        <path d="M820.8384 396.3904c23.7056 2.048 46.1312 11.4176 64.3584 26.624l7.5264 6.912c21.76 21.76 33.9968 51.3024 33.9968 82.0736v213.3504a116.0192 116.0192 0 0 1-116.0704 116.0192H213.3504A116.0704 116.0704 0 0 1 97.28 725.3504V298.6496a116.0704 116.0704 0 0 1 116.0704-116.0192H384a30.72 30.72 0 0 1 21.7088 8.96l76.288 76.288 158.0032 0.0512c27.3408 0 53.76 9.6768 74.5472 27.136l7.5264 6.8608c21.76 21.76 33.9968 51.3024 33.9968 82.0736l-0.0512 11.9296h54.6304l10.24 0.512zM371.2512 244.0704H213.3504A54.6304 54.6304 0 0 0 158.72 298.6496v426.7008a54.6304 54.6304 0 0 0 54.6304 54.5792l6.144-0.3584a54.5792 54.5792 0 0 0 48.4352-54.272V512A116.0704 116.0704 0 0 1 384 395.9296h310.5792V384c0-12.3904-4.1984-24.3712-11.8784-33.9968l-4.096-4.608c-10.24-10.24-24.1152-16.0256-38.6048-16.0256H469.3504a30.72 30.72 0 0 1-21.76-8.96L371.2512 244.0704zM384 457.3696A54.6304 54.6304 0 0 0 329.3696 512v213.3504c0 17.1008-3.7376 33.792-10.8544 48.9984l-2.9184 5.5808h495.104a55.04 55.04 0 0 0 9.1648-0.768l-2.4064 0.3584a54.272 54.272 0 0 0 6.4512-1.2288l-4.096 0.8704c2.5088-0.4096 4.864-1.024 7.2192-1.7408l-3.1232 0.9216c2.3552-0.6144 4.6592-1.3824 6.912-2.2528l-3.7888 1.3312c2.048-0.6144 3.9936-1.3824 5.888-2.2016l-2.0992 0.8704c2.2528-0.9216 4.4544-1.9456 6.656-3.1744l-4.5568 2.304c2.1504-0.9728 4.1984-2.048 6.1952-3.2768l5.5808-3.8912 4.608-4.096c10.24-10.24 15.9744-24.1152 15.9744-38.6048V512a54.6304 54.6304 0 0 0-54.6304-54.6304H384z"></path>
    
</svg>