<svg xmlns="http://www.w3.org/2000/svg" viewBox="0 0 1024 1024">
  
        <path d="M519.77056516 135.10432012c180.53768369 0 331.10983461 73.19221075 337.85673286 175.79158994l0.2326513 7.21220084v387.7837782c0 106.32180602-153.31744017 183.00379155-338.08938415 183.00379078-180.58421379 0-331.1563647-73.19221075-337.90326297-175.79158994L181.63465092 705.8918891V318.1081109C181.63465092 211.78630487 334.99862119 135.10432012 519.77056516 135.10432012z m1e-8 559.89947143c-117.0703125 0-221.484375-30.71001829-282.34604802-80.35788149l0.04653087 91.19944817c0 65.04940244 124.37557433 127.21392454 282.29951714 127.21392454 153.50356135 0 275.31996759-58.76780754 281.97380488-121.76987536l0.27918216-5.39751831 0.04653088-91.19944893c-60.81514215 49.5548022-165.27573552 80.31135137-282.29951791 80.31135138z m0-193.84535901c-117.0703125 0-221.484375-30.80307927-282.34604802-80.35788071L237.47104802 512c0 65.00287234 124.37557433 127.16739443 282.29951714 127.16739443 157.87741273 0 282.25298704-62.16452211 282.25298704-127.16739443l0.04653088-91.19944817c-60.81514215 49.5548022-165.27573552 80.35788148-282.29951791 80.35788071z m0-310.21771532c-153.55009223 0-275.36649847 58.76780754-281.97380487 121.76987539l-0.32571228 5.39751829c0 65.00287234 124.37557433 127.21392454 282.29951714 127.21392531 157.87741273 0 282.25298704-62.2110522 282.25298704-127.21392531S677.64797789 190.94071722 519.77056516 190.94071722z"></path>
    
</svg>