<svg xmlns="http://www.w3.org/2000/svg" viewBox="0 0 1024 1024">
  
        <path d="M862.9248 716.0832c33.4336 2.4064 48.8448 21.7088 44.032 35.84-4.8128 14.0288-38.912 49.408-96.1536 58.7776-57.2416 9.4208-113.8688 5.12-135.4752 5.12-21.6576 0-47.104-3.4816-33.9456-16.2304a324.096 324.096 0 0 1 102.8096-64.6144c50.176-18.8928 85.2992-21.248 118.784-18.8928z m118.9376-168.2944c-2.2528 16.384-17.2544 58.112-60.5184 89.856a314.5728 314.5728 0 0 1-115.2512 53.0432c-31.0272 7.4752-60.3136 17.5104-50.6368-3.072 9.728-20.6336 42.5984-71.8336 90.0096-107.776s72.448-40.192 93.5424-45.2096c21.0944-5.0688 45.1584-3.2768 42.8544 13.1584z m-14.5408-169.5232c17.408 0 16.2304 18.2272 11.5712 33.8432-4.6592 15.616-24.576 62.1056-58.9824 90.4192-22.9376 18.7904-52.0192 35.1744-87.1424 48.9984 7.8336-50.6368 24.6272-90.4192 50.432-119.3984 38.6048-43.52 66.7136-53.8624 84.1216-53.8624zM889.1904 243.2a21.2992 21.2992 0 0 1 23.808 18.944l0.7168 8.0384a186.2656 186.2656 0 0 1-10.3936 76.4928c-13.312 37.12-33.3824 66.56-60.0064 88.2176a302.6944 302.6944 0 0 1-9.728-49.3056c-1.792-19.712-1.792-37.4784 9.728-82.432 5.0688-19.968 16.128-38.0416 33.1264-54.1696a21.8112 21.8112 0 0 1 12.8-5.7856zM158.72 716.0832c-33.4336 2.4064-48.8448 21.7088-44.032 35.84 4.8128 14.0288 38.912 49.408 96.1536 58.7776 57.2416 9.4208 113.8688 5.12 135.5264 5.12 21.6064 0 47.104-3.4816 33.8944-16.2304a324.096 324.096 0 0 0-102.8096-64.6144c-50.176-18.8928-85.2992-21.248-118.7328-18.8928zM39.7824 547.84c2.2528 16.384 17.2544 58.112 60.5696 89.856 35.1232 25.6512 74.24 43.6224 115.2 53.0432 31.0272 7.4752 60.3136 17.5104 50.6368-3.072-9.728-20.6336-42.5472-71.8336-90.0096-107.776-47.4112-35.9424-72.448-40.192-93.5424-45.2096-21.0944-5.0688-45.1584-3.2768-42.8544 13.1584z m14.5408-169.5232c-17.3568 0-16.2304 18.2272-11.52 33.8432 4.608 15.616 24.576 62.1056 58.9312 90.4192 22.9376 18.7904 52.0192 35.1744 87.1936 48.9984-7.8848-50.6368-24.6784-90.4192-50.432-119.3984-38.656-43.52-66.7136-53.8624-84.1728-53.8624zM132.4544 243.2a21.2992 21.2992 0 0 0-23.808 18.944l-0.7168 8.0384c-1.8944 26.112 1.6384 52.2752 10.3936 76.4928 13.312 37.12 33.3824 66.56 60.0576 88.2176 4.5568-16.0768 7.7824-32.5632 9.6768-49.3056 1.792-19.712 1.792-37.4784-9.728-82.432-5.0688-19.968-16.128-38.0416-33.1264-54.1696a21.76 21.76 0 0 0-12.7488-5.7856z"></path>
        <path d="M524.3904 631.7056l81.152 26.7776a39.0144 39.0144 0 0 0 51.2-37.1712l-0.1536-86.6304c0-8.2432 2.56-16.2816 7.424-22.9888l50.8416-70.1952a39.0144 39.0144 0 0 0-19.5072-60.0064l-81.7664-26.5728a39.0656 39.0656 0 0 1-19.6096-14.336l-50.0736-69.7344a39.0656 39.0656 0 0 0-63.3856 0l-50.0736 69.7344a39.0144 39.0144 0 0 1-19.6608 14.336l-81.7152 26.624a39.0144 39.0144 0 0 0-19.5584 59.904l50.8416 70.2464c4.864 6.656 7.4752 14.7456 7.424 22.9888l-0.1536 86.6304a39.0144 39.0144 0 0 0 51.2 37.1712l81.152-26.7776a39.0656 39.0656 0 0 1 24.4224 0z"></path>
    
</svg>