<svg xmlns="http://www.w3.org/2000/svg" viewBox="0 0 1024 1024">
  
        <path d="M154.1632 209.8688c20.4288-22.528 48.7936-35.84 79.0528-35.84h238.9504a30.72 30.72 0 0 1 22.7328 10.1376l70.5024 77.6704h225.3312c30.3104 0 58.6752 13.312 79.104 35.84 20.3264 22.3744 31.232 52.1216 31.232 82.6368V435.2a30.72 30.72 0 1 1-61.44 0V380.3136c0-16.0256-5.7856-30.8736-15.3088-41.4208a45.4144 45.4144 0 0 0-33.5872-15.616h-238.8992a30.72 30.72 0 0 1-22.784-10.0864L458.5472 235.52h-225.28a45.4144 45.4144 0 0 0-33.5872 15.616c-9.5744 10.5472-15.36 25.3952-15.36 41.472v438.784c0 16.0768 5.7856 30.9248 15.36 41.472a45.4144 45.4144 0 0 0 33.536 15.616h163.7376a30.72 30.72 0 1 1 0 61.44H233.216c-30.2592 0-58.624-13.312-79.0528-35.7888a123.2384 123.2384 0 0 1-31.2832-82.688V292.5568c0-30.5152 10.9568-60.3136 31.2832-82.688z m583.168 234.8032a30.72 30.72 0 0 1 28.9792 20.48l44.8512 126.976 110.3872 39.1168a30.72 30.72 0 0 1 0 57.9584l-110.3872 39.1168-44.8512 126.976a30.72 30.72 0 0 1-57.9072 0l-44.8512-126.976-110.3872-39.1168a30.72 30.72 0 0 1 0-57.9584l110.3872-39.0656 44.8512-126.976a30.72 30.72 0 0 1 28.9792-20.48z m0 123.0336l-20.6848 58.7264a30.72 30.72 0 0 1-18.7392 18.7392l-42.496 15.0528 42.496 15.0528a30.72 30.72 0 0 1 18.7392 18.7392l20.736 58.7264 20.736-58.7264a30.72 30.72 0 0 1 18.688-18.7392l42.496-15.0528-42.496-15.0528a30.72 30.72 0 0 1-18.688-18.7392l-20.736-58.7264zM585.216 732.16a30.72 30.72 0 0 1 30.72 30.72v10.3424h12.8a30.72 30.72 0 0 1 0 61.44h-12.8v10.3424a30.72 30.72 0 1 1-61.44 0v-10.3424h-12.8a30.72 30.72 0 1 1 0-61.44h12.8V762.88a30.72 30.72 0 0 1 30.72-30.72z"></path>
    
</svg>