<svg xmlns="http://www.w3.org/2000/svg" viewBox="0 0 1075 1024">
  
        <path d="M236.3392 92.416H786.432c73.216 0 132.8128 61.1328 132.8128 136.192v181.0432a29.2864 29.2864 0 1 1-58.5728 0V228.6592c0-42.8032-33.28-77.6704-74.24-77.6704H236.3392c-40.9088 0-74.24 34.816-74.24 77.6704v444.2112c0 42.8032 33.3312 77.6704 74.24 77.6704h133.888c16.1792 0 29.2864 13.1072 29.2864 29.2352v63.6928l110.592-84.224a29.184 29.184 0 0 1 20.7872-8.704h81.1008a29.3376 29.3376 0 1 1-2.2528 58.5216h-68.4544l-153.2928 116.7872a29.2352 29.2352 0 0 1-47.0528-23.296v-93.4912H236.3904c-73.216 0-132.8128-61.0816-132.8128-136.192V228.6592c0-75.1104 59.5456-136.192 132.7616-136.192z m197.6832 203.776a29.2864 29.2864 0 0 0-29.2352 29.2352v28.5696a29.2864 29.2864 0 1 0 58.5216 0v-28.5696a29.2864 29.2864 0 0 0-29.2864-29.2864z m199.2704 29.2352a29.2864 29.2864 0 1 1 58.5728 0v28.5696a29.2864 29.2864 0 1 1-58.5728 0v-28.5696z m-12.8 103.424a29.44 29.44 0 0 0-40.448 8.192c-0.1024 0.1536-12.7488 18.5344-32 18.5344-18.7392 0-30.4128-16.9984-31.232-18.176a29.2864 29.2864 0 0 0-49.5616 31.1808c10.5472 16.896 39.3728 45.568 80.7936 45.568 41.216 0 70.4-28.4672 81.152-45.2608a29.1328 29.1328 0 0 0-8.704-40.0896z m177.5104 81.408a98.9696 98.9696 0 0 1 168.96 69.9904v37.5808h3.4304a64.8704 64.8704 0 0 1 64.8704 64.8192v102.4a64.8704 64.8704 0 0 1-64.8704 64.8704h-204.8a64.8704 64.8704 0 0 1-64.8192-64.8704v-102.4a64.8704 64.8704 0 0 1 64.8192-64.8192h3.4304v-37.5808c0-26.2656 10.4448-51.4048 28.9792-69.9904z m107.52 107.52v-37.5296a37.5296 37.5296 0 1 0-75.0592 0v37.5808h75.0592z m-139.9296 61.44a3.4304 3.4304 0 0 0-3.3792 3.4304v102.4a3.4304 3.4304 0 0 0 3.3792 3.4304h204.8a3.4304 3.4304 0 0 0 3.4304-3.4304v-102.4a3.4304 3.4304 0 0 0-3.4304-3.3792h-204.8z"></path>
    
</svg>