<svg xmlns="http://www.w3.org/2000/svg" viewBox="0 0 1024 1024">
  
        <path d="M788.7872 92.416H238.7456C165.5296 92.416 105.984 153.6 105.984 228.608v444.2624c0 75.1104 59.5456 136.192 132.8128 136.192h104.5504v93.4912a29.2864 29.2864 0 0 0 47.0528 23.296l153.2928-116.736h245.0944c73.216 0 132.8128-61.1328 132.8128-136.2432V228.6592c0-75.1104-59.5968-136.192-132.8128-136.192zM164.5568 344.9344V228.6592c0-42.8032 33.28-77.6704 74.24-77.6704h549.9904c40.96 0 74.24 34.816 74.24 77.6704v444.2112c0 42.8032-33.28 77.6704-74.24 77.6704h-255.488a29.184 29.184 0 0 0-20.8384 8.704L401.92 843.4688V779.776a29.2864 29.2864 0 0 0-29.2864-29.2352H238.7968c-40.96 0-74.24-34.8672-74.24-77.6704V344.9344z m242.5856-19.5072a29.2864 29.2864 0 1 1 58.5728 0v28.5696a29.2864 29.2864 0 1 1-58.5728 0v-28.5696z m257.8432-29.2864a29.2864 29.2864 0 0 0-29.2864 29.2864v28.5696a29.2864 29.2864 0 1 0 58.5728 0v-28.5696a29.2864 29.2864 0 0 0-29.2864-29.2864z m-82.5344 140.9024a29.44 29.44 0 0 1 40.448-8.192c13.4144 8.8064 17.3568 26.5728 8.704 40.0384-10.752 16.7936-39.936 45.2096-81.152 45.2096-41.472 0-70.2464-28.6208-80.7936-45.568a29.2864 29.2864 0 0 1 49.6128-31.1296c0.768 1.1776 12.4416 18.176 31.1808 18.176 19.2512 0 31.8976-18.3808 32-18.5344z"></path>
    
</svg>