<svg xmlns="http://www.w3.org/2000/svg" viewBox="0 0 1024 1024">
  
        <path d="M195.072 198.6048h645.9904l26.88 204.8H168.1408l26.9312-204.8z" fill="#D8F3DE"></path>
        <path d="M221.2352 237.4656a48.5376 48.5376 0 0 0-20.0704 16.1792c-10.24 13.2096-16.896 32.4096-16.896 53.5552v71.68h655.36V307.2a100.3008 100.3008 0 0 0-1.792-18.5344 91.136 91.136 0 0 0-8.2944-24.4736 70.912 70.912 0 0 0-6.7072-10.5472 49.152 49.152 0 0 0-18.0224-14.8992 47.0016 47.0016 0 0 0-14.1824-3.2256H233.216c-4.0448 0-7.9872 0.512-11.9808 1.9456z m-21.1456-57.7024a93.8496 93.8496 0 0 1 26.3168-5.6832 70.3488 70.3488 0 0 1 8.0384 0h556.288c13.6704 0 26.6752 2.9696 38.7072 8.3456 14.08 5.888 30.3616 16.2816 42.5984 34.4576 4.4544 5.7856 8.192 11.776 11.3664 17.7152a152.8832 152.8832 0 0 1 17.7152 72.5504V716.8c0 33.1776-10.1888 66.048-29.7984 91.2896-19.7632 25.3952-48.4352 41.8304-80.5888 41.8304H233.216c-32.1024 0-60.7744-16.4352-80.5376-41.8304C133.0688 782.848 122.88 749.9776 122.88 716.8V307.8144A91.392 91.392 0 0 1 122.88 299.008a157.696 157.696 0 0 1 2.56-21.8112c3.1744-17.152 10.3936-40.5504 27.392-61.44 13.6704-17.5104 29.4912-29.4912 47.2064-35.9424zM184.32 440.32v143.36h296.96V440.32H184.32z m358.4 0v143.36h296.96V440.32h-296.96z m296.96 204.8h-296.96v143.36h248.0128c10.1376 0 22.016-5.12 32.1024-18.1248 10.24-13.2096 16.8448-32.4096 16.8448-53.5552v-71.68z m-358.4 143.36v-143.36H184.32V716.8c0 21.1456 6.6048 40.3456 16.896 53.5552 10.0864 13.0048 21.9136 18.1248 32 18.1248H481.28z m358.4-482.1504z" fill="#129E52"></path>
    
</svg>