<svg xmlns="http://www.w3.org/2000/svg" viewBox="0 0 1024 1024">
  
        <path d="M512 235.52a276.48 276.48 0 1 0 0 552.96 276.48 276.48 0 0 0 0-552.96z m-238.9504 37.5296a337.92 337.92 0 1 1 477.9008 477.9008 337.92 337.92 0 0 1-477.9008-477.9008z m174.08 204.8a30.72 30.72 0 0 1 30.72-30.72H512a30.72 30.72 0 0 1 30.72 30.72v139.9808h37.5296a30.72 30.72 0 1 1 0 61.44H443.7504a30.72 30.72 0 0 1 0-61.44H481.28V508.5696h-3.4304a30.72 30.72 0 0 1-30.72-30.72z"></path>
        <path d="M546.1504 375.4496a34.1504 34.1504 0 1 1-68.2496 0 34.1504 34.1504 0 0 1 68.2496 0z"></path>
    
</svg>